<svg xmlns="http://www.w3.org/2000/svg" xmlns:xlink="http://www.w3.org/1999/xlink" width="500" zoomAndPan="magnify" viewBox="0 0 375 374.999991" height="500" preserveAspectRatio="xMidYMid meet" version="1.0"><defs><clipPath id="ef8d55958c"><path d="M 4.113281 20.878906 L 370.863281 20.878906 L 370.863281 353.878906 L 4.113281 353.878906 Z M 4.113281 20.878906 " clip-rule="nonzero"/></clipPath><clipPath id="32baf376cb"><path d="M 4.113281 20.878906 L 370.863281 20.878906 L 370.863281 353.878906 L 4.113281 353.878906 Z M 4.113281 20.878906 " clip-rule="nonzero"/></clipPath></defs><g clip-path="url(#ef8d55958c)"><path fill="#0b2740" d="M 370.863281 115.660156 C 356.308594 136.230469 338.667969 154.699219 317.726562 168.855469 C 319.082031 154.875 318.621094 141.148438 314.8125 127.632812 C 312.988281 133.238281 311.28125 138.855469 308.421875 144.132812 C 304.222656 131.65625 298.953125 119.472656 291.433594 108.601562 C 291.105469 108.125 291.105469 107.769531 291.382812 107.296875 C 302.503906 87.40625 314.738281 67.582031 325.59375 47.816406 C 308.835938 61.136719 292.578125 75.113281 276.066406 88.757812 C 275.667969 89.097656 275.414062 89.207031 274.984375 88.769531 C 274.332031 88.101562 273.585938 87.542969 272.886719 86.929688 C 266.082031 80.914062 258.734375 75.636719 250.910156 71.027344 C 249.53125 70.21875 249.671875 70.527344 250.285156 69.101562 C 254.304688 59.578125 258.855469 50.023438 262.554688 40.496094 C 253.078125 47.582031 243.894531 55.195312 234.488281 62.421875 C 234.144531 62.691406 233.867188 62.980469 233.308594 62.738281 C 229.984375 61.3125 226.523438 60.253906 223.058594 59.261719 C 215.359375 57.070312 207.53125 55.535156 199.5625 54.746094 C 198.910156 54.683594 198.636719 54.429688 198.4375 53.8125 C 194.679688 42.933594 191.503906 31.519531 187.503906 20.898438 C 184.078125 31.78125 180.480469 42.609375 177.050781 53.488281 C 176.792969 54.308594 176.359375 54.609375 175.53125 54.691406 C 170.046875 55.253906 164.621094 56.210938 159.242188 57.414062 C 153.65625 58.667969 148.183594 60.285156 142.828125 62.296875 C 141.890625 62.644531 141.054688 62.828125 140.375 61.875 C 130.933594 54.90625 121.945312 47.222656 112.375 40.488281 C 116.542969 50.195312 120.847656 59.828125 125.066406 69.515625 C 125.429688 70.347656 125.429688 70.347656 124.632812 70.851562 C 119.726562 73.855469 114.914062 77.003906 110.339844 80.496094 C 106.914062 83.109375 103.644531 85.902344 100.40625 88.746094 C 99.683594 89.378906 99.675781 89.1875 99.253906 88.742188 C 82.660156 75.132812 66.113281 60.949219 49.375 47.753906 C 60.550781 67.636719 72.210938 87.296875 83.625 107.058594 C 84.015625 107.726562 83.992188 108.183594 83.570312 108.804688 C 76.449219 119.773438 70.917969 131.570312 67.160156 144.117188 C 64.320312 138.605469 62.707031 133.253906 60.742188 127.410156 C 56.75 140.902344 56.828125 154.945312 57.621094 168.761719 C 36.628906 154.15625 18.851562 136.410156 4.167969 115.320312 C 2.585938 151.730469 34.023438 222.0625 55.488281 252.007812 C 44.460938 243.371094 34.410156 232.960938 24.84375 222.582031 C 62.136719 283.644531 124.378906 325.042969 188.15625 353.863281 C 252.953125 322.6875 311.453125 284.800781 350.820312 222.984375 C 350.351562 222.871094 350.199219 223.300781 349.972656 223.546875 C 341.003906 233.515625 331.410156 243.011719 320.820312 251.261719 C 320.84375 251.234375 320.863281 251.207031 320.878906 251.175781 C 320.816406 251.101562 320.753906 251.023438 320.691406 250.949219 C 343.476562 216.0625 370.546875 157.496094 370.863281 115.660156 Z M 370.863281 115.660156 " fill-opacity="1" fill-rule="nonzero"/></g><path fill="#0b2740" d="M 323.609375 103.816406 C 321.921875 102.234375 319.96875 100.988281 318.164062 99.558594 C 317.972656 99.40625 317.820312 99.109375 317.453125 99.234375 C 318.140625 109.6875 321.261719 105.691406 312.679688 112.195312 C 312.507812 112.324219 312.21875 112.386719 312.28125 112.742188 C 322.816406 115.570312 319.082031 112.433594 322.429688 123.011719 C 328.460938 113.601562 323.75 115.605469 335.078125 115.402344 C 333.53125 113.324219 331.734375 111.3125 329.890625 109.449219 C 329.503906 109.082031 329.351562 108.734375 329.53125 108.175781 C 330.355469 105.445312 330.875 102.828125 331.558594 99.984375 C 329.292969 101.269531 327.109375 102.582031 324.867188 103.890625 C 324.382812 104.175781 324.050781 104.230469 323.609375 103.816406 Z M 323.609375 103.816406 " fill-opacity="1" fill-rule="nonzero"/><path fill="#0b2740" d="M 40.128906 115.03125 C 50.652344 115.414062 46.847656 112.597656 52.125 121.503906 C 52.296875 121.800781 52.398438 122.195312 52.828125 122.339844 C 53.371094 119.753906 54.140625 117.296875 54.796875 114.816406 C 54.949219 114.246094 55.230469 113.941406 55.808594 113.816406 C 58 113.355469 60.179688 112.867188 62.355469 112.375 C 62.59375 112.324219 62.914062 112.445312 63.058594 112.113281 C 54.515625 105.003906 56.546875 109.964844 57.453125 98.589844 C 57.164062 98.585938 57.027344 98.753906 56.867188 98.878906 C 55.128906 100.285156 53.378906 101.679688 51.648438 103.097656 C 50.589844 103.96875 50.769531 103.789062 49.804688 103.234375 C 47.75 102.058594 45.691406 100.882812 43.511719 99.636719 C 45.601562 111.035156 48.179688 105.667969 40.128906 115.03125 Z M 40.128906 115.03125 " fill-opacity="1" fill-rule="nonzero"/><path fill="#0b2740" d="M 48.597656 133.714844 C 49.367188 133.007812 50.191406 132.339844 50.871094 131.425781 C 46.035156 131.324219 47.515625 132.269531 45.414062 127.847656 C 42.929688 132.96875 45.675781 131.027344 40.148438 131.800781 C 44.386719 135.550781 42.800781 133.585938 42.128906 138.578125 C 46.523438 135.652344 44.613281 135.855469 49.003906 138.320312 C 49.238281 137.855469 48.378906 135.675781 48.210938 135.039062 C 47.996094 134.441406 48.167969 134.109375 48.597656 133.714844 Z M 48.597656 133.714844 " fill-opacity="1" fill-rule="nonzero"/><path fill="#0b2740" d="M 333.082031 132.199219 C 332.496094 132.226562 332.238281 131.992188 332.066406 131.441406 C 331.792969 130.554688 331.4375 129.699219 331.28125 128.777344 C 331.246094 128.585938 331.242188 128.363281 330.917969 128.335938 C 328.582031 132.808594 330.164062 131.660156 325.289062 131.625 C 326.40625 133.566406 328.96875 134.007812 327.398438 136.582031 C 327.070312 137.136719 326.835938 137.796875 326.847656 138.613281 C 331.367188 136.089844 329.425781 136.308594 333.769531 139.039062 C 333.125 134.734375 331.808594 135.984375 335.554688 132.996094 C 335.71875 132.859375 336.035156 132.816406 335.949219 132.476562 C 335 132.269531 334.039062 132.160156 333.082031 132.199219 Z M 333.082031 132.199219 " fill-opacity="1" fill-rule="nonzero"/><path fill="#0b2740" d="M 151.960938 45.960938 C 152.789062 46.222656 152.804688 46.1875 152.574219 46.992188 C 152.40625 47.566406 152.042969 48.089844 152.054688 48.800781 C 156.1875 46.425781 154.007812 46.777344 157.957031 48.675781 C 157.613281 44.644531 157.554688 45.878906 161.40625 44.089844 C 161.28125 43.625 158.996094 43.347656 158.441406 43.167969 C 157.890625 43.070312 157.785156 42.785156 157.859375 42.300781 C 157.972656 41.566406 158.070312 40.828125 158.019531 39.839844 C 154.441406 43.042969 155.929688 42.449219 151.582031 40.828125 C 154.15625 45 152.042969 43.054688 150.496094 45.976562 C 151.027344 46.042969 151.472656 45.800781 151.960938 45.960938 Z M 151.960938 45.960938 " fill-opacity="1" fill-rule="nonzero"/><path fill="#0b2740" d="M 214.683594 44.769531 C 218 45.9375 218.394531 45.402344 217.96875 49.222656 C 218.597656 49.023438 218.964844 48.699219 219.292969 48.382812 C 220.925781 46.699219 222.285156 48.585938 224.050781 49.136719 C 222.59375 45.367188 222.683594 46.824219 225.335938 46.304688 C 222.660156 43.339844 222.171875 45.039062 224.035156 41.65625 C 221.375 41.984375 221.125 43.917969 218.753906 41.507812 C 218.398438 41.210938 218.125 40.800781 217.601562 40.632812 C 217.488281 41.425781 217.707031 42.121094 217.769531 42.828125 C 217.84375 43.601562 217.855469 43.617188 217.121094 43.769531 C 216.335938 44.03125 214.839844 43.957031 214.28125 44.472656 C 214.355469 44.679688 214.523438 44.71875 214.683594 44.769531 Z M 214.683594 44.769531 " fill-opacity="1" fill-rule="nonzero"/><path fill="#0b2740" d="M 350.8125 222.933594 C 350.804688 222.949219 350.8125 222.964844 350.820312 222.976562 C 350.820312 222.980469 350.816406 222.980469 350.816406 222.984375 C 350.828125 222.984375 350.832031 222.992188 350.835938 222.992188 C 350.832031 222.96875 350.820312 222.953125 350.8125 222.933594 Z M 350.8125 222.933594 " fill-opacity="1" fill-rule="nonzero"/><path fill="#0b2740" d="M 350.75 222.820312 C 350.769531 222.855469 350.789062 222.898438 350.8125 222.933594 C 350.820312 222.882812 350.882812 222.808594 350.75 222.820312 Z M 350.75 222.820312 " fill-opacity="1" fill-rule="nonzero"/><path fill="#fdfdfd" d="M 298.292969 149.234375 C 274.476562 61.113281 159.917969 35.195312 100.546875 104.765625 C 53.675781 158.140625 69.121094 246.824219 131.871094 280.585938 C 221.355469 329.820312 324.5 247.421875 298.292969 149.234375 Z M 295.902344 184.398438 C 292.8125 271.453125 191.902344 319.742188 122.40625 266.992188 C 57.203125 218.503906 68.554688 113.011719 143.378906 80.421875 C 215.675781 47.386719 300.699219 104.753906 295.902344 184.398438 Z M 295.902344 184.398438 " fill-opacity="1" fill-rule="nonzero"/><path fill="#fdfdfd" d="M 320.691406 250.945312 C 320.605469 251.039062 320.519531 251.128906 320.433594 251.222656 C 320.539062 251.4375 320.800781 251.371094 320.878906 251.175781 C 320.816406 251.097656 320.753906 251.019531 320.691406 250.945312 Z M 320.691406 250.945312 " fill-opacity="1" fill-rule="nonzero"/><path fill="#fdfdfd" d="M 55.476562 252.0625 L 55.507812 252.039062 L 55.488281 252.007812 Z M 55.476562 252.0625 " fill-opacity="1" fill-rule="nonzero"/><path fill="#fdfdfd" d="M 218.140625 221.121094 C 227.4375 215.808594 236.148438 209.597656 244.523438 202.933594 C 245.046875 202.519531 245.324219 202.015625 245.449219 201.386719 C 246.71875 195.074219 247.632812 188.714844 247.847656 182.265625 C 248.03125 176.742188 247.75 171.261719 246.933594 165.800781 C 246.835938 165.160156 246.601562 164.617188 246.113281 164.179688 C 238.214844 156.667969 229.726562 149.667969 219.976562 144.667969 C 219.363281 144.347656 218.902344 144.382812 218.367188 144.734375 C 207.957031 151.253906 197.425781 157.589844 186.9375 163.976562 C 186.480469 164.253906 186.167969 164.503906 186.167969 165.160156 C 186.203125 171.21875 186.1875 177.28125 186.1875 183.339844 C 186.222656 183.339844 186.261719 183.339844 186.296875 183.339844 C 186.296875 189.328125 186.308594 195.324219 186.289062 201.3125 C 186.289062 201.996094 186.460938 202.433594 187.074219 202.824219 C 196.746094 208.96875 206.480469 215.023438 216.191406 221.105469 C 216.925781 221.574219 217.449219 221.546875 218.140625 221.121094 Z M 236.847656 206.402344 C 236.730469 206.339844 236.847656 206.183594 236.953125 206.226562 C 237.015625 206.339844 236.882812 206.347656 236.847656 206.402344 Z M 237.882812 160.617188 C 237.816406 160.519531 237.878906 160.472656 237.945312 160.433594 C 237.925781 160.488281 237.976562 160.640625 237.882812 160.617188 Z M 209.25 153.449219 C 212.605469 151.699219 216.015625 150.082031 219.589844 148.820312 C 220.605469 148.457031 221.390625 148.535156 222.25 149.21875 C 227.445312 152.996094 232.796875 156.574219 237.945312 160.425781 C 237.460938 160.671875 237.101562 160.289062 236.738281 160.101562 C 232.324219 157.777344 227.910156 155.46875 223.464844 153.207031 C 218.90625 150.835938 213.007812 153.917969 208.253906 153.933594 C 208.585938 153.777344 208.921875 153.613281 209.25 153.449219 Z M 200.199219 207.332031 C 198.328125 206.664062 196.644531 205.609375 194.832031 204.808594 C 193.054688 203.675781 191.484375 202.199219 189.746094 200.996094 C 189.207031 200.597656 188.96875 200.101562 188.976562 199.414062 C 189.058594 192.355469 188.917969 185.335938 189.09375 178.277344 C 190.21875 184.1875 190.679688 189.898438 191.972656 195.6875 C 193.386719 201.003906 198.050781 204.65625 202.234375 207.875 C 201.464844 207.84375 200.832031 207.570312 200.199219 207.332031 Z M 209.828125 214.65625 C 208.1875 213.425781 206.433594 211.964844 205.40625 210.261719 L 205.351562 210.285156 L 205.378906 210.246094 C 209.03125 212.535156 215.269531 215.566406 219.578125 214.117188 C 225.277344 212.023438 230.617188 209.109375 236.113281 206.5625 C 236.34375 206.464844 236.558594 206.246094 236.835938 206.402344 C 230.726562 210.394531 224.691406 214.503906 218.351562 218.128906 C 216.011719 219.65625 211.9375 215.824219 209.828125 214.65625 Z M 209.828125 214.65625 " fill-opacity="1" fill-rule="nonzero"/><path fill="#fdfdfd" d="M 152.5625 144.519531 C 142.042969 149.65625 132.378906 156.6875 123.914062 164.75 C 123.300781 165.359375 122.917969 166.03125 122.839844 166.910156 C 122.707031 168.378906 122.46875 169.847656 122.34375 171.316406 C 121.347656 181.429688 122.398438 191.679688 124.871094 201.511719 C 125.039062 202.199219 125.332031 202.78125 125.898438 203.246094 C 133.953125 210 142.464844 216.167969 151.515625 221.523438 C 152.183594 221.9375 152.675781 221.886719 153.285156 221.457031 C 162.953125 215.117188 172.625 208.753906 182.484375 202.722656 C 182.976562 202.441406 183.128906 202.117188 183.128906 201.570312 C 183.113281 195.476562 183.117188 189.382812 183.117188 183.289062 C 183.113281 183.289062 183.101562 183.289062 183.097656 183.289062 C 183.097656 177.222656 183.089844 171.164062 183.101562 165.101562 C 183.101562 164.578125 182.988281 164.234375 182.503906 163.914062 C 173.015625 157.484375 163.429688 151.191406 153.992188 144.6875 C 153.515625 144.359375 153.101562 144.296875 152.5625 144.519531 Z M 174.359375 201.511719 C 179.738281 196.226562 179.1875 188.183594 180.476562 181.246094 C 181.191406 187.402344 180.859375 193.691406 181.007812 199.910156 C 181.007812 200.65625 180.765625 201.089844 180.109375 201.472656 C 174.59375 204.910156 168.59375 207.609375 163.691406 211.945312 C 161.609375 213.371094 154.007812 220.273438 151.882812 218.738281 C 146.171875 215.320312 140.570312 211.609375 135.28125 207.597656 L 135.246094 207.609375 L 135.261719 207.582031 C 138.019531 209.042969 140.882812 210.246094 143.738281 211.503906 C 147.46875 212.84375 151.046875 215.898438 155.222656 214.535156 C 162.605469 211.886719 168.878906 207.011719 174.359375 201.511719 Z M 160.074219 151.757812 C 161.082031 152.265625 162.082031 152.792969 163.035156 153.441406 C 148.097656 149.4375 151.707031 151.257812 138.410156 157.011719 C 138.269531 157.257812 137.394531 157.609375 137.007812 157.648438 C 141.496094 154.589844 145.945312 151.542969 150.503906 148.582031 C 151.117188 148.167969 151.675781 148.101562 152.335938 148.34375 C 154.945312 149.40625 157.539062 150.519531 160.074219 151.757812 Z M 160.074219 151.757812 " fill-opacity="1" fill-rule="nonzero"/><path fill="#fdfdfd" d="M 259.476562 119.789062 C 251.417969 112.292969 242.535156 105.742188 233.320312 99.742188 C 233 99.539062 232.722656 99.339844 232.28125 99.4375 C 224.109375 101.03125 216.585938 104.925781 209.613281 109.367188 C 214.46875 118.832031 218.042969 128.96875 219.421875 139.5625 C 219.605469 140.769531 220.179688 141.546875 221.242188 142.101562 C 231.0625 147.59375 240.59375 153.988281 248.378906 162.171875 C 248.851562 162.757812 248.832031 162.765625 249.492188 162.425781 C 256.808594 158.304688 264.136719 154.203125 271.382812 149.964844 C 272.679688 149.667969 270.847656 144.503906 270.703125 143.410156 C 268.140625 135.148438 265.5 126.214844 259.476562 119.789062 Z M 238.894531 150.074219 C 234.625 147.496094 230.199219 145.085938 225.90625 142.523438 C 224.246094 141.390625 221.910156 140.675781 221.726562 138.367188 C 220.996094 133.285156 219.574219 128.601562 218.59375 123.539062 C 220.398438 127.515625 222.160156 131.226562 223.835938 134.996094 C 225.378906 138.492188 225.410156 138.457031 228.425781 140.886719 C 232.449219 144.359375 236.894531 147.453125 240.730469 151.066406 C 240 150.777344 239.433594 150.503906 238.894531 150.074219 Z M 260.953125 151.519531 C 260.789062 151.433594 260.925781 151.433594 260.996094 151.410156 C 261.027344 151.472656 260.996094 151.546875 260.953125 151.519531 Z M 268.324219 143.363281 C 268.554688 144.152344 268.675781 144.976562 268.921875 145.761719 C 269.09375 146.316406 268.917969 146.671875 268.527344 147.035156 C 267.796875 147.71875 267.019531 148.34375 266.160156 148.855469 C 264.5 149.75 262.824219 150.960938 261 151.398438 C 262.863281 147.75 264.316406 143.851562 263.308594 139.683594 C 261.082031 127.148438 253 117.460938 243.339844 109.675781 C 248.699219 112.65625 253.125 116.679688 257.347656 121.058594 C 262.710938 127.460938 265.816406 135.484375 268.324219 143.363281 Z M 268.324219 143.363281 " fill-opacity="1" fill-rule="nonzero"/><path fill="#fdfdfd" d="M 103.957031 146.011719 C 103.660156 147.496094 103.40625 148.988281 103.132812 150.472656 C 103.097656 151.007812 103.53125 151.179688 103.851562 151.410156 C 109.542969 155.527344 115.335938 159.488281 121.167969 163.402344 C 121.628906 163.726562 121.933594 163.679688 122.277344 163.242188 C 130.300781 154.378906 140.230469 147.542969 150.664062 141.835938 C 151.335938 141.46875 151.730469 140.953125 151.890625 140.167969 C 153.472656 132.886719 155.371094 125.65625 158.03125 118.6875 C 159.023438 116.082031 160.089844 113.511719 161.101562 110.921875 C 161.425781 110.09375 161.386719 110.03125 160.730469 109.550781 C 155.578125 105.691406 150.3125 101.992188 144.566406 99.0625 C 143.847656 98.695312 143.339844 98.738281 142.695312 99.171875 C 138.054688 102.320312 133.476562 105.558594 128.90625 108.8125 C 123.351562 113.273438 116.695312 117.027344 112.796875 123.121094 C 108.84375 130.304688 105.6875 137.976562 103.957031 146.011719 Z M 143.996094 139.039062 C 145.488281 137.898438 146.589844 136.550781 147.390625 134.859375 C 149.582031 130.402344 151.632812 125.871094 154.023438 121.519531 C 152.453125 127.132812 150.777344 132.796875 149.339844 138.46875 C 149.183594 139.070312 148.863281 139.5 148.292969 139.785156 C 142.78125 142.5625 137.523438 145.671875 132.09375 148.605469 C 135.765625 145.105469 140.046875 142.246094 143.996094 139.039062 Z M 109.222656 137.277344 C 114 123.488281 122.089844 114.671875 134.585938 107.355469 C 125.050781 115.394531 115.699219 124.726562 112.972656 137.460938 C 111.351562 142.9375 111.554688 147.699219 113.953125 152.917969 C 113.695312 153.179688 113.492188 152.933594 113.304688 152.855469 C 110.957031 151.914062 108.796875 150.652344 106.8125 149.089844 C 105.648438 148.175781 105.691406 148.175781 106.089844 146.757812 C 106.980469 143.550781 107.980469 140.375 109.222656 137.277344 Z M 109.222656 137.277344 " fill-opacity="1" fill-rule="nonzero"/><path fill="#fdfdfd" d="M 245.523438 249.710938 C 259.992188 239.535156 260.261719 243.441406 266.894531 225.519531 C 267.453125 223.933594 267.941406 222.320312 268.355469 220.6875 C 268.574219 219.824219 268.496094 219.113281 267.753906 218.476562 C 261.886719 212.765625 254.917969 208.414062 247.8125 204.414062 C 247.460938 204.21875 247.21875 204.1875 246.90625 204.480469 C 246.457031 204.90625 245.941406 205.261719 245.476562 205.671875 C 237.542969 212.492188 229.222656 218.996094 220.042969 224.066406 C 219.460938 224.367188 219.175781 224.769531 219.058594 225.394531 C 217.167969 235.75 214.328125 245.929688 209.554688 255.363281 C 208.207031 257.925781 226.835938 260.464844 229.019531 260.511719 C 229.441406 260.628906 229.847656 260.402344 230.269531 260.128906 C 235.390625 256.699219 240.394531 253.113281 245.523438 249.710938 Z M 239.148438 252.824219 C 239.128906 252.835938 239.113281 252.847656 239.097656 252.851562 C 239.125 252.824219 239.148438 252.800781 239.171875 252.777344 C 239.164062 252.792969 239.15625 252.816406 239.148438 252.824219 Z M 238.167969 214.472656 C 238.1875 214.460938 238.214844 214.457031 238.234375 214.457031 C 238.203125 214.484375 238.167969 214.503906 238.128906 214.53125 C 238.140625 214.503906 238.144531 214.476562 238.167969 214.472656 Z M 218.171875 244.003906 L 218.210938 244.003906 C 218.207031 244.007812 218.199219 244.019531 218.195312 244.023438 Z M 218.226562 243.980469 C 219.070312 238.148438 220.34375 232.378906 221.257812 226.550781 C 221.363281 225.96875 221.5625 225.558594 222.078125 225.214844 C 227.191406 221.796875 232.242188 218.277344 237.402344 214.933594 C 237.636719 214.546875 238.171875 214.75 237.546875 215.085938 C 233.75 218.738281 229.753906 222.183594 225.933594 225.828125 C 225.257812 226.441406 224.726562 227.148438 224.394531 227.992188 C 223.183594 231.179688 221.855469 234.316406 220.683594 237.511719 C 219.765625 239.621094 219.292969 241.941406 218.226562 243.980469 Z M 228.035156 259.453125 C 225.109375 258.988281 222.269531 258.207031 219.253906 257.292969 C 222.109375 257.359375 224.722656 257.683594 227.550781 257.832031 C 228.472656 257.90625 229.316406 257.675781 230.144531 257.296875 C 233.183594 255.96875 236.0625 254.230469 239.066406 252.871094 C 236.394531 254.929688 233.585938 256.945312 230.761719 258.847656 C 229.910156 259.402344 229.046875 259.617188 228.035156 259.453125 Z M 228.035156 259.453125 " fill-opacity="1" fill-rule="nonzero"/><path fill="#fdfdfd" d="M 146.640625 98.066406 C 174.441406 112.214844 152.796875 105.835938 182.351562 103.867188 C 190.367188 103.5 198.425781 104.4375 206.207031 106.386719 C 206.929688 106.585938 207.542969 106.554688 208.1875 106.21875 C 214.960938 103.007812 221.773438 99.835938 228.925781 97.515625 C 229.714844 97.261719 229.710938 97.25 229.28125 96.585938 C 227.132812 93.253906 224.789062 90.070312 222.285156 87 C 221.402344 85.910156 220.332031 85.207031 219.023438 84.769531 C 204.699219 79.898438 189.292969 78.402344 174.289062 80.292969 C 169.449219 81.085938 155.523438 83.226562 152.824219 86.898438 C 150.242188 90.265625 148.199219 94.109375 145.511719 97.351562 C 145.742188 97.910156 146.257812 97.890625 146.640625 98.066406 Z M 146.640625 98.066406 " fill-opacity="1" fill-rule="nonzero"/><path fill="#fdfdfd" d="M 106.386719 218.378906 C 103.730469 220.445312 113.289062 236.488281 115.144531 239.117188 C 115.691406 239.914062 116.300781 240.730469 117.078125 241.210938 C 124.679688 245.578125 131.796875 250.738281 139.28125 255.300781 C 141.214844 256.492188 143.148438 257.691406 145.054688 258.914062 C 146.058594 259.558594 147.101562 259.773438 148.292969 259.605469 C 153.136719 259.0625 157.738281 257.960938 162.5 256.691406 C 157.550781 247.085938 153.992188 237.140625 152.183594 226.535156 C 152.097656 226.019531 151.929688 225.609375 151.398438 225.304688 C 148.695312 223.761719 146.085938 222.0625 143.535156 220.273438 C 136.816406 215.554688 130.453125 210.402344 124.519531 204.738281 C 124.296875 204.566406 124.070312 204.417969 123.820312 204.734375 C 117.371094 208.316406 110.988281 212.5 106.386719 218.378906 Z M 153.175781 257.5625 C 151.492188 257.929688 149.789062 258.191406 148.113281 258.5625 C 147.308594 258.742188 146.636719 258.589844 145.964844 258.160156 C 143.269531 256.355469 140.386719 254.726562 137.75 252.871094 C 137.636719 252.816406 137.515625 252.753906 137.398438 252.695312 C 137.53125 252.722656 137.691406 252.6875 137.761719 252.863281 C 146.601562 256.59375 145.683594 257.617188 155.875 256.808594 C 154.902344 257.265625 154.023438 257.375 153.175781 257.5625 Z M 142.539062 221.382812 C 144.835938 222.964844 147.113281 224.578125 149.4375 226.113281 C 150.1875 226.605469 150.613281 227.195312 150.800781 228.054688 C 152.230469 234.378906 153.683594 240.617188 155.101562 246.941406 C 152.660156 241.222656 150.550781 235.613281 148.171875 229.914062 C 147.898438 229.234375 147.53125 228.628906 146.992188 228.117188 C 142.386719 223.78125 137.855469 219.363281 133.214844 215.0625 C 136.519531 216.746094 139.410156 219.351562 142.539062 221.382812 Z M 142.539062 221.382812 " fill-opacity="1" fill-rule="nonzero"/><path fill="#fdfdfd" d="M 223.957031 261.683594 C 218.484375 261.019531 213.089844 259.914062 207.757812 258.515625 C 206.816406 258.269531 205.878906 258.160156 204.902344 258.234375 C 192.714844 259.371094 180.464844 259.429688 168.273438 258.359375 C 167.367188 258.285156 166.488281 258.296875 165.609375 258.480469 C 159.183594 259.890625 152.808594 261.511719 146.1875 261.808594 C 148.351562 265.953125 151.691406 269.789062 154.667969 273.511719 C 158.753906 277.742188 174.09375 279.214844 180.226562 279.875 C 192.722656 280.835938 205.394531 279.511719 217.351562 275.664062 C 221.882812 274.097656 225.703125 266.230469 228.316406 262.152344 C 226.828125 261.910156 225.429688 261.863281 223.957031 261.683594 Z M 223.914062 264.628906 C 221.390625 268.03125 219.40625 272.535156 215.117188 274 C 206.871094 276.71875 198.175781 277.941406 189.507812 277.972656 C 179.648438 278.050781 169.714844 276.859375 160.265625 273.972656 C 158.644531 273.480469 157.289062 272.660156 156.121094 271.398438 C 153.882812 268.78125 151.367188 266.292969 149.539062 263.382812 C 169.472656 278.648438 203.863281 280.320312 223.914062 264.09375 C 223.921875 264.09375 223.921875 264.097656 223.925781 264.097656 C 223.925781 264.09375 223.921875 264.089844 223.921875 264.082031 C 223.972656 264.140625 224.050781 264.167969 224.113281 264.207031 C 224.078125 264.234375 224.050781 264.25 224.03125 264.261719 C 224.058594 264.382812 224.003906 264.507812 223.914062 264.628906 Z M 223.914062 264.628906 " fill-opacity="1" fill-rule="nonzero"/><path fill="#fdfdfd" d="M 223.925781 264.105469 C 223.953125 264.171875 223.949219 264.285156 224.027344 264.261719 C 224.015625 264.207031 223.984375 264.140625 223.925781 264.105469 Z M 223.925781 264.105469 " fill-opacity="1" fill-rule="nonzero"/><path fill="#fdfdfd" d="M 99.855469 159.625 C 100.335938 159.132812 100.351562 159.148438 100.796875 159.648438 C 104.238281 163.703125 107.839844 167.605469 112.539062 170.246094 C 113.203125 170.621094 113.382812 171.078125 113.394531 171.808594 C 113.496094 178.9375 113.710938 186.058594 114.101562 193.167969 C 114.125 193.613281 114 193.847656 113.640625 194.089844 C 108.097656 198.058594 104.464844 204.230469 102.785156 210.785156 C 107.753906 206.339844 112.917969 202.25 118.714844 198.917969 C 119.648438 198.363281 119.636719 198.367188 119.492188 197.296875 C 118.023438 187.742188 117.917969 177.984375 119.152344 168.390625 C 119.230469 167.769531 119.082031 167.394531 118.527344 167.050781 C 112.613281 163.332031 106.875 159.34375 101.003906 155.566406 C 99.242188 154.203125 95.078125 160.46875 93.964844 161.742188 C 91.6875 164.789062 90.828125 175.082031 90.660156 179.1875 C 93.011719 172.589844 94.761719 164.933594 99.855469 159.625 Z M 99.855469 159.625 " fill-opacity="1" fill-rule="nonzero"/><path fill="#fdfdfd" d="M 167.796875 128.214844 C 172.90625 117.027344 183.664062 110.0625 195.96875 110.320312 C 187.089844 107.339844 177.433594 108.644531 168.636719 111.289062 C 167.90625 111.511719 167.488281 111.949219 167.199219 112.628906 C 163.785156 120.886719 160.757812 129.453125 158.550781 138.046875 C 158.707031 138.492188 159.300781 138.613281 159.699219 138.871094 C 161.203125 139.828125 162.652344 140.855469 164.265625 142.066406 C 163.890625 137.09375 165.777344 132.59375 167.796875 128.214844 Z M 167.796875 128.214844 " fill-opacity="1" fill-rule="nonzero"/><path fill="#fdfdfd" d="M 172.582031 225.460938 C 177.113281 219.546875 182.667969 214.132812 189.640625 211.210938 C 188.519531 210.535156 187.503906 209.902344 186.589844 209.132812 C 186.136719 208.75 185.792969 208.695312 185.261719 209.039062 C 177.300781 213.964844 169.421875 219.007812 161.527344 224.03125 C 160.972656 224.382812 160.8125 224.761719 160.945312 225.367188 C 162.480469 232.582031 163.820312 240.089844 167.316406 246.636719 C 165.523438 239.203125 168.136719 231.484375 172.582031 225.460938 Z M 172.582031 225.460938 " fill-opacity="1" fill-rule="nonzero"/><path fill="#fdfdfd" d="M 99.539062 151.65625 C 100.089844 151.21875 100.378906 150.703125 100.46875 150.023438 C 102.050781 139.539062 106.976562 130.089844 112.015625 120.878906 C 110.957031 120.304688 109.886719 120.015625 108.859375 119.625 C 108.363281 119.433594 108.074219 119.554688 107.769531 120.011719 C 97.988281 133.398438 91.132812 148.8125 88.984375 165.34375 C 91.515625 160.058594 95.039062 155.410156 99.539062 151.65625 Z M 92.785156 155.117188 C 92.5625 154.828125 92.734375 154.636719 92.8125 154.4375 C 94.28125 150.589844 95.871094 146.792969 97.125 142.859375 C 98.613281 138.792969 101.40625 135.355469 103.976562 131.933594 C 102.363281 136.453125 100.070312 140.917969 99.222656 145.777344 C 98.921875 147.167969 98.316406 148.332031 97.246094 149.300781 C 95.417969 150.976562 94.140625 153.066406 92.785156 155.117188 Z M 92.785156 155.117188 " fill-opacity="1" fill-rule="nonzero"/><path fill="#fdfdfd" d="M 284.984375 157.996094 C 282.078125 144.472656 276.160156 131.667969 267.800781 120.648438 C 267.078125 119.695312 267.078125 119.664062 266.039062 120.21875 C 264.253906 121.171875 264.503906 120.664062 265.347656 122.441406 C 269.632812 131.175781 273.585938 140.226562 275.152344 149.898438 C 275.238281 150.472656 275.507812 150.917969 275.941406 151.296875 C 280.515625 155.25 283.445312 160.671875 286.289062 165.835938 C 285.933594 163.207031 285.488281 160.601562 284.984375 157.996094 Z M 273.269531 134.378906 C 273.269531 134.382812 273.273438 134.382812 273.273438 134.390625 C 273.257812 134.390625 273.238281 134.394531 273.222656 134.394531 C 273.238281 134.390625 273.253906 134.382812 273.269531 134.378906 Z M 282.417969 155.316406 C 281.175781 153.085938 279.8125 150.941406 278.085938 149.042969 C 277.433594 148.332031 277.164062 147.441406 276.917969 146.546875 C 276.257812 144.164062 275.734375 141.738281 274.867188 139.414062 C 274.363281 138.074219 273.898438 136.71875 273.402344 135.375 C 273.28125 135.046875 273.132812 134.738281 273.28125 134.390625 C 275.023438 137.5625 277.585938 140.3125 278.628906 143.839844 C 279.714844 148.058594 281.808594 151.746094 282.976562 155.957031 C 282.617188 155.78125 282.539062 155.527344 282.417969 155.316406 Z M 282.417969 155.316406 " fill-opacity="1" fill-rule="nonzero"/><path fill="#fdfdfd" d="M 191.917969 253.378906 C 195.960938 253.164062 199.871094 252.207031 203.8125 251.402344 C 204.675781 251.222656 205.175781 250.800781 205.535156 250.003906 C 208.296875 243.835938 210.8125 237.496094 211.898438 230.792969 C 211.949219 230.484375 212.039062 230.183594 211.746094 229.9375 C 210.691406 229.027344 209.640625 228.117188 208.460938 227.097656 C 208.304688 232.484375 205.929688 237.285156 203.347656 241.871094 C 198.71875 250.300781 188.671875 253.179688 179.542969 251.714844 C 183.484375 253.332031 187.722656 253.554688 191.917969 253.378906 Z M 191.917969 253.378906 " fill-opacity="1" fill-rule="nonzero"/><path fill="#fdfdfd" d="M 258.667969 169.15625 C 262.707031 165.851562 267.527344 163.800781 272.085938 161.554688 C 265.4375 160.53125 258.945312 163.0625 253.613281 166.851562 C 253.289062 167.070312 253.199219 167.285156 253.265625 167.699219 C 254.96875 178.054688 255.609375 188.621094 253.542969 199 C 258.535156 190.457031 258.972656 179.9375 258.160156 170.28125 C 258.101562 169.769531 258.265625 169.464844 258.667969 169.15625 Z M 258.667969 169.15625 " fill-opacity="1" fill-rule="nonzero"/><path fill="#fdfdfd" d="M 282.8125 207.304688 C 280.28125 211.566406 277.261719 215.429688 273.570312 218.738281 C 272.578125 219.625 271.980469 220.621094 271.566406 221.882812 C 269.324219 228.871094 266.15625 235.398438 262.367188 241.695312 C 263.414062 241.746094 264.410156 241.757812 265.390625 241.863281 C 265.941406 241.917969 266.277344 241.757812 266.609375 241.339844 C 274.859375 230.820312 280.609375 218.578125 283.980469 205.660156 C 283.335938 206.1875 283.121094 206.78125 282.8125 207.304688 Z M 267.984375 232.625 C 267.988281 232.621094 267.992188 232.613281 268.003906 232.609375 L 268.015625 232.644531 Z M 268.152344 232.3125 C 268.15625 232.242188 268.152344 232.167969 268.140625 232.101562 C 268.140625 232.101562 268.144531 232.097656 268.144531 232.097656 C 268.167969 232.175781 268.167969 232.25 268.152344 232.3125 Z M 276.492188 221.257812 C 273.992188 224.867188 271.609375 228.558594 268.722656 231.867188 C 268.601562 232.050781 268.445312 232.296875 268.152344 232.089844 C 270.101562 229.335938 271.460938 226.191406 272.867188 223.121094 C 273.1875 222.363281 273.652344 221.683594 274.34375 221.191406 C 275.636719 220.261719 276.941406 219.347656 278.394531 218.316406 C 277.695312 219.398438 277.125 220.351562 276.492188 221.257812 Z M 276.492188 221.257812 " fill-opacity="1" fill-rule="nonzero"/><path fill="#fdfdfd" d="M 106.519531 230.351562 C 106.515625 230.347656 106.515625 230.347656 106.507812 230.34375 C 106.503906 230.351562 106.503906 230.363281 106.5 230.378906 C 106.5 230.378906 106.519531 230.351562 106.519531 230.351562 Z M 106.519531 230.351562 " fill-opacity="1" fill-rule="nonzero"/><path fill="#fdfdfd" d="M 110.707031 237.265625 C 109.433594 235.175781 108.148438 233.085938 106.515625 231.265625 C 103.15625 227.519531 100.414062 223.292969 97.835938 218.996094 C 97.707031 218.992188 97.660156 218.898438 97.621094 218.796875 C 97.621094 218.796875 97.617188 218.792969 97.617188 218.792969 C 97.859375 218.460938 99.785156 220.128906 100.175781 220.324219 C 100.960938 220.851562 101.558594 221.53125 101.972656 222.382812 C 103.433594 225.054688 104.773438 227.855469 106.515625 230.34375 C 105.679688 227.246094 103.683594 224.40625 102.984375 221.226562 C 102.800781 220.378906 102.394531 219.796875 101.824219 219.246094 C 97.695312 215.476562 94.742188 210.597656 91.714844 206.027344 C 94.816406 218.355469 100.992188 229.929688 108.234375 240.386719 C 109.195312 241.8125 111.683594 241.273438 113.257812 242.101562 C 113.441406 242.175781 113.679688 242.347656 113.980469 242.09375 C 112.457031 240.761719 111.710938 238.925781 110.707031 237.265625 Z M 97.597656 218.582031 C 97.726562 218.667969 97.628906 218.722656 97.597656 218.78125 C 97.527344 218.730469 97.464844 218.683594 97.398438 218.628906 C 97.449219 218.585938 97.488281 218.507812 97.597656 218.582031 Z M 97.375 218.425781 C 97.375 218.472656 97.371094 218.519531 97.371094 218.566406 C 97.355469 218.515625 97.304688 218.457031 97.375 218.425781 Z M 97.375 218.425781 " fill-opacity="1" fill-rule="nonzero"/><path fill="#fdfdfd" d="M 254.648438 249.378906 C 245.570312 254.832031 236.554688 260.761719 230.875 269.945312 L 230.875 269.953125 C 231.003906 269.976562 230.894531 270.207031 231.035156 270.058594 C 231.019531 270.046875 231.011719 270.042969 230.996094 270.03125 C 231.34375 270.21875 231.613281 269.910156 231.875 269.75 C 235.917969 267.191406 239.925781 264.582031 243.808594 261.789062 C 249.960938 257.171875 256.597656 252.714844 262.136719 247.527344 C 259.453125 247.417969 256.976562 247.949219 254.648438 249.378906 Z M 254.648438 249.378906 " fill-opacity="1" fill-rule="nonzero"/><path fill="#fdfdfd" d="M 140.847656 263.390625 C 135.785156 257.46875 128.703125 253.679688 122.210938 249.53125 C 119.847656 247.902344 116.964844 247.804688 114.210938 247.457031 C 114.09375 247.441406 113.925781 247.410156 113.921875 247.539062 C 125.359375 254.664062 136.273438 262.414062 146.558594 271.214844 C 144.953125 268.417969 142.738281 266.007812 140.847656 263.390625 Z M 140.847656 263.390625 " fill-opacity="1" fill-rule="nonzero"/><path fill="#fdfdfd" d="M 138.945312 96.53125 C 141.707031 94.707031 142.953125 91.460938 144.828125 88.839844 C 144.539062 88.679688 144.394531 88.9375 144.214844 89.066406 C 133.816406 96.808594 122.765625 104.1875 112.980469 112.511719 C 122.113281 107.957031 130.804688 102.675781 138.945312 96.53125 Z M 138.945312 96.53125 " fill-opacity="1" fill-rule="nonzero"/><path fill="#fdfdfd" d="M 236.679688 96.296875 C 244.554688 102.007812 252.722656 107.289062 261.230469 112.011719 C 261.558594 112.199219 261.894531 112.558594 262.351562 112.261719 C 252.476562 105.003906 242.746094 97.460938 232.769531 90.300781 C 232.488281 90.097656 232.234375 89.742188 231.796875 89.886719 C 233.523438 91.953125 234.429688 94.707031 236.679688 96.296875 Z M 236.679688 96.296875 " fill-opacity="1" fill-rule="nonzero"/><path fill="#fdfdfd" d="M 231.789062 89.886719 C 231.789062 89.894531 231.789062 89.886719 231.789062 89.886719 C 231.796875 89.886719 231.796875 89.886719 231.789062 89.886719 C 231.796875 89.886719 231.796875 89.886719 231.789062 89.886719 C 231.796875 89.878906 231.804688 89.839844 231.804688 89.839844 L 231.773438 89.863281 Z M 231.789062 89.886719 " fill-opacity="1" fill-rule="nonzero"/><path fill="#fdfdfd" d="M 106.785156 230.636719 C 106.890625 230.65625 106.929688 230.511719 106.816406 230.46875 C 106.808594 230.472656 106.796875 230.480469 106.785156 230.484375 C 106.792969 230.484375 106.792969 230.488281 106.796875 230.488281 C 106.734375 230.542969 106.722656 230.59375 106.785156 230.636719 Z M 106.785156 230.636719 " fill-opacity="1" fill-rule="nonzero"/><path fill="#fdfdfd" d="M 106.78125 230.484375 C 106.699219 230.445312 106.640625 230.335938 106.523438 230.367188 C 106.582031 230.488281 106.660156 230.546875 106.78125 230.484375 Z M 106.78125 230.484375 " fill-opacity="1" fill-rule="nonzero"/><path fill="#fdfdfd" d="M 106.519531 230.351562 C 106.519531 230.351562 106.5 230.378906 106.5 230.378906 C 106.507812 230.375 106.519531 230.375 106.53125 230.367188 C 106.523438 230.363281 106.523438 230.359375 106.519531 230.351562 Z M 106.519531 230.351562 " fill-opacity="1" fill-rule="nonzero"/><path fill="#fdfdfd" d="M 144.851562 88.816406 C 144.851562 88.820312 144.800781 88.800781 144.800781 88.800781 L 144.835938 88.839844 C 144.835938 88.839844 144.835938 88.839844 144.839844 88.839844 C 144.835938 88.839844 144.851562 88.808594 144.851562 88.816406 Z M 144.851562 88.816406 " fill-opacity="1" fill-rule="nonzero"/><path fill="#fdfdfd" d="M 262.332031 112.417969 C 262.304688 112.390625 262.289062 112.367188 262.292969 112.339844 C 262.273438 112.359375 262.265625 112.386719 262.332031 112.417969 Z M 262.332031 112.417969 " fill-opacity="1" fill-rule="nonzero"/><path fill="#fdfdfd" d="M 262.355469 112.265625 C 262.355469 112.265625 262.355469 112.261719 262.355469 112.261719 C 262.355469 112.261719 262.351562 112.261719 262.351562 112.265625 C 262.351562 112.261719 262.351562 112.261719 262.355469 112.265625 Z M 262.355469 112.265625 " fill-opacity="1" fill-rule="nonzero"/><path fill="#fdfdfd" d="M 262.292969 112.339844 C 262.316406 112.3125 262.363281 112.292969 262.355469 112.265625 C 262.316406 112.289062 262.292969 112.3125 262.292969 112.339844 Z M 262.292969 112.339844 " fill-opacity="1" fill-rule="nonzero"/><path fill="#e2362c" d="M 357.269531 146.578125 C 347.425781 160.46875 334.789062 172.175781 320.257812 181.03125 C 317.542969 182.726562 314.796875 184.375 312.050781 186.019531 C 311.480469 186.359375 311.25 186.78125 311.238281 187.4375 C 310.257812 207.917969 303.824219 228.070312 293.261719 245.609375 C 270.898438 280.589844 239.140625 309.117188 205.828125 333.378906 C 281.648438 291.085938 329.578125 227.699219 357.71875 146.238281 C 357.449219 146.296875 357.367188 146.445312 357.269531 146.578125 Z M 357.269531 146.578125 " fill-opacity="1" fill-rule="nonzero"/><path fill="#e2362c" d="M 169.761719 333.683594 C 132.507812 307.167969 86.144531 265.207031 70.574219 221.523438 C 66.820312 210.660156 64.269531 199.265625 63.703125 187.773438 C 63.671875 187.105469 63.519531 186.617188 62.882812 186.257812 C 45.097656 176.398438 30.292969 161.832031 18.425781 145.578125 C 44.3125 227.644531 95.300781 291.9375 170.402344 334.28125 C 170.332031 333.929688 170.003906 333.835938 169.761719 333.683594 Z M 169.761719 333.683594 " fill-opacity="1" fill-rule="nonzero"/><path fill="#e2362c" d="M 170.40625 334.28125 C 170.40625 334.285156 170.414062 334.296875 170.414062 334.300781 C 170.414062 334.300781 170.421875 334.292969 170.421875 334.292969 C 170.417969 334.285156 170.414062 334.28125 170.40625 334.28125 Z M 170.40625 334.28125 " fill-opacity="1" fill-rule="nonzero"/><path fill="#e2362c" d="M 171.21875 334.679688 C 171.230469 334.683594 171.238281 334.695312 171.25 334.699219 C 171.25 334.699219 171.261719 334.6875 171.261719 334.6875 C 171.246094 334.6875 171.230469 334.683594 171.21875 334.679688 Z M 171.21875 334.679688 " fill-opacity="1" fill-rule="nonzero"/><path fill="#e2362c" d="M 170.414062 334.296875 C 170.421875 334.296875 170.433594 334.300781 170.449219 334.300781 C 170.4375 334.296875 170.433594 334.292969 170.421875 334.28125 C 170.421875 334.285156 170.414062 334.296875 170.414062 334.296875 Z M 170.414062 334.296875 " fill-opacity="1" fill-rule="nonzero"/><path fill="#e2362c" d="M 171.21875 334.679688 C 170.984375 334.507812 170.738281 334.359375 170.445312 334.308594 C 170.675781 334.492188 170.945312 334.589844 171.21875 334.679688 Z M 171.21875 334.679688 " fill-opacity="1" fill-rule="nonzero"/><path fill="#e2362c" d="M 319.925781 251.839844 C 319.898438 251.878906 319.867188 251.914062 319.84375 251.949219 C 319.878906 251.917969 319.910156 251.886719 319.945312 251.863281 C 319.945312 251.863281 319.945312 251.863281 319.941406 251.855469 L 319.945312 251.863281 C 320.152344 251.855469 320.488281 251.625 320.308594 251.410156 C 320.105469 251.484375 319.976562 251.632812 319.925781 251.839844 Z M 319.925781 251.839844 " fill-opacity="1" fill-rule="nonzero"/><path fill="#e2362c" d="M 320.429688 251.21875 C 320.386719 251.28125 320.34375 251.34375 320.304688 251.40625 C 320.335938 251.433594 320.355469 251.464844 320.359375 251.5 C 320.527344 251.527344 320.636719 251.4375 320.738281 251.324219 C 320.605469 251.386719 320.503906 251.347656 320.429688 251.21875 Z M 320.429688 251.21875 " fill-opacity="1" fill-rule="nonzero"/><path fill="#e2362c" d="M 171.464844 334.902344 L 171.453125 334.914062 C 171.589844 334.984375 171.726562 335.046875 171.863281 335.113281 C 171.863281 335.113281 171.867188 335.109375 171.867188 335.109375 C 171.738281 335.039062 171.601562 334.972656 171.464844 334.902344 Z M 171.464844 334.902344 " fill-opacity="1" fill-rule="nonzero"/><path fill="#e2362c" d="M 172.167969 335.332031 C 172.140625 335.324219 172.113281 335.324219 172.082031 335.316406 L 172.078125 335.324219 C 172.09375 335.433594 172.234375 335.410156 172.167969 335.332031 Z M 172.167969 335.332031 " fill-opacity="1" fill-rule="nonzero"/><path fill="#e2362c" d="M 171.25 334.699219 C 171.320312 334.773438 171.390625 334.839844 171.460938 334.914062 C 171.460938 334.914062 171.46875 334.902344 171.46875 334.902344 C 171.402344 334.832031 171.328125 334.761719 171.261719 334.6875 C 171.253906 334.6875 171.25 334.699219 171.25 334.699219 Z M 171.25 334.699219 " fill-opacity="1" fill-rule="nonzero"/><path fill="#e2362c" d="M 171.867188 335.113281 C 171.9375 335.1875 172.011719 335.253906 172.078125 335.328125 C 172.078125 335.328125 172.082031 335.324219 172.082031 335.324219 C 172.015625 335.25 171.941406 335.179688 171.875 335.109375 C 171.875 335.109375 171.867188 335.113281 171.867188 335.113281 Z M 171.867188 335.113281 " fill-opacity="1" fill-rule="nonzero"/><path fill="#e2362c" d="M 137.855469 157.097656 C 137.597656 157.265625 137.347656 157.425781 137 157.652344 C 137.429688 157.605469 137.699219 157.46875 137.953125 157.300781 C 137.921875 157.234375 137.890625 157.164062 137.855469 157.097656 Z M 137.855469 157.097656 " fill-opacity="1" fill-rule="nonzero"/><path fill="#e2362c" d="M 135.0625 107.097656 C 135 107.160156 134.9375 107.21875 134.875 107.28125 C 134.875 107.28125 134.875 107.289062 134.875 107.289062 C 134.9375 107.21875 135 107.160156 135.0625 107.097656 Z M 135.0625 107.097656 " fill-opacity="1" fill-rule="nonzero"/><path fill="#e2362c" d="M 238.230469 253.515625 C 238.574219 253.390625 238.851562 253.171875 239.066406 252.871094 C 238.722656 252.917969 238.4375 253.097656 238.167969 253.296875 C 238.183594 253.375 238.203125 253.445312 238.230469 253.515625 Z M 238.230469 253.515625 " fill-opacity="1" fill-rule="nonzero"/><path fill="#e2362c" d="M 239.066406 252.878906 C 239.074219 252.878906 239.078125 252.878906 239.082031 252.878906 L 239.078125 252.871094 C 239.074219 252.871094 239.066406 252.871094 239.066406 252.878906 Z M 239.066406 252.878906 " fill-opacity="1" fill-rule="nonzero"/><path fill="#e2362c" d="M 237.546875 215.078125 C 238.136719 214.785156 237.679688 214.503906 237.398438 214.933594 C 237.371094 215.0625 237.429688 215.101562 237.546875 215.078125 Z M 237.546875 215.078125 " fill-opacity="1" fill-rule="nonzero"/><path fill="#e2362c" d="M 238.167969 214.472656 C 238.152344 214.484375 238.144531 214.507812 238.128906 214.523438 C 238.167969 214.5 238.199219 214.476562 238.234375 214.453125 C 238.207031 214.457031 238.1875 214.460938 238.167969 214.472656 Z M 238.167969 214.472656 " fill-opacity="1" fill-rule="nonzero"/><path fill="#e2362c" d="M 238.273438 214.414062 C 238.273438 214.414062 238.253906 214.441406 238.253906 214.441406 C 238.25 214.445312 238.246094 214.453125 238.234375 214.453125 C 238.238281 214.453125 238.25 214.453125 238.253906 214.445312 Z M 238.273438 214.414062 " fill-opacity="1" fill-rule="nonzero"/><path fill="#e2362c" d="M 239.078125 252.871094 C 239.082031 252.867188 239.089844 252.863281 239.09375 252.851562 C 239.082031 252.855469 239.078125 252.855469 239.066406 252.863281 C 239.074219 252.867188 239.078125 252.871094 239.078125 252.871094 Z M 239.078125 252.871094 " fill-opacity="1" fill-rule="nonzero"/><path fill="#e2362c" d="M 239.167969 252.777344 C 239.140625 252.804688 239.121094 252.832031 239.09375 252.851562 C 239.136719 252.839844 239.164062 252.820312 239.167969 252.777344 Z M 239.167969 252.777344 " fill-opacity="1" fill-rule="nonzero"/><path fill="#e2362c" d="M 138.394531 253.332031 C 138.398438 253.261719 138.40625 253.179688 138.40625 253.101562 C 138.21875 252.953125 138.019531 252.832031 137.753906 252.863281 C 137.6875 252.6875 137.523438 252.722656 137.394531 252.695312 C 137.507812 252.753906 137.628906 252.816406 137.746094 252.871094 C 137.902344 253.113281 138.136719 253.238281 138.394531 253.332031 Z M 138.394531 253.332031 " fill-opacity="1" fill-rule="nonzero"/><path fill="#e2362c" d="M 133.222656 215.070312 C 133.21875 215.0625 133.214844 215.058594 133.207031 215.058594 L 133.199219 215.070312 C 133.207031 215.070312 133.214844 215.070312 133.222656 215.070312 Z M 133.222656 215.070312 " fill-opacity="1" fill-rule="nonzero"/><path fill="#e2362c" d="M 133.8125 215.308594 C 133.648438 215.136719 133.449219 215.078125 133.222656 215.0625 C 133.34375 215.175781 133.464844 215.285156 133.585938 215.394531 C 133.660156 215.371094 133.738281 215.339844 133.8125 215.308594 Z M 133.8125 215.308594 " fill-opacity="1" fill-rule="nonzero"/><path fill="#e2362c" d="M 137.398438 252.695312 C 137.382812 252.683594 137.363281 252.671875 137.347656 252.667969 L 137.34375 252.679688 C 137.359375 252.683594 137.378906 252.6875 137.398438 252.695312 Z M 137.398438 252.695312 " fill-opacity="1" fill-rule="nonzero"/><path fill="#e2362c" d="M 133.003906 214.84375 C 133.070312 214.917969 133.136719 214.992188 133.203125 215.070312 C 133.203125 215.070312 133.214844 215.058594 133.214844 215.058594 C 133.140625 214.984375 133.070312 214.914062 133.003906 214.84375 L 132.976562 214.824219 C 132.976562 214.816406 133.003906 214.84375 133.003906 214.84375 Z M 133.003906 214.84375 " fill-opacity="1" fill-rule="nonzero"/><path fill="#e2362c" d="M 137.335938 252.671875 L 137.347656 252.664062 L 137.304688 252.621094 Z M 137.335938 252.671875 " fill-opacity="1" fill-rule="nonzero"/><g clip-path="url(#32baf376cb)"><path fill="#0b2740" d="M 370.863281 115.660156 C 356.308594 136.230469 338.667969 154.699219 317.726562 168.855469 C 319.082031 154.875 318.621094 141.148438 314.8125 127.632812 C 312.988281 133.238281 311.28125 138.855469 308.421875 144.132812 C 304.222656 131.65625 298.953125 119.472656 291.433594 108.601562 C 291.105469 108.125 291.105469 107.769531 291.382812 107.296875 C 302.503906 87.40625 314.738281 67.582031 325.59375 47.816406 C 308.835938 61.136719 292.578125 75.113281 276.066406 88.757812 C 275.667969 89.097656 275.414062 89.207031 274.984375 88.769531 C 274.332031 88.101562 273.585938 87.542969 272.886719 86.929688 C 266.082031 80.914062 258.734375 75.636719 250.910156 71.027344 C 249.53125 70.21875 249.671875 70.527344 250.285156 69.101562 C 254.304688 59.578125 258.855469 50.023438 262.554688 40.496094 C 253.078125 47.582031 243.894531 55.195312 234.488281 62.421875 C 234.144531 62.691406 233.867188 62.980469 233.308594 62.738281 C 229.984375 61.3125 226.523438 60.253906 223.058594 59.261719 C 215.359375 57.070312 207.53125 55.535156 199.5625 54.746094 C 198.910156 54.683594 198.636719 54.429688 198.4375 53.8125 C 194.679688 42.933594 191.503906 31.519531 187.503906 20.898438 C 184.078125 31.78125 180.480469 42.609375 177.050781 53.488281 C 176.792969 54.308594 176.359375 54.609375 175.53125 54.691406 C 170.046875 55.253906 164.621094 56.210938 159.242188 57.414062 C 153.65625 58.667969 148.183594 60.285156 142.828125 62.296875 C 141.890625 62.644531 141.054688 62.828125 140.375 61.875 C 130.933594 54.90625 121.945312 47.222656 112.375 40.488281 C 116.542969 50.195312 120.847656 59.828125 125.066406 69.515625 C 125.429688 70.347656 125.429688 70.347656 124.632812 70.851562 C 119.726562 73.855469 114.914062 77.003906 110.339844 80.496094 C 106.914062 83.109375 103.644531 85.902344 100.40625 88.746094 C 99.683594 89.378906 99.675781 89.1875 99.253906 88.742188 C 82.660156 75.132812 66.113281 60.949219 49.375 47.753906 C 60.550781 67.636719 72.210938 87.296875 83.625 107.058594 C 84.015625 107.726562 83.992188 108.183594 83.570312 108.804688 C 76.449219 119.773438 70.917969 131.570312 67.160156 144.117188 C 64.320312 138.605469 62.707031 133.253906 60.742188 127.410156 C 56.75 140.902344 56.828125 154.945312 57.621094 168.761719 C 36.628906 154.15625 18.851562 136.410156 4.167969 115.320312 C 2.585938 151.730469 34.023438 222.0625 55.488281 252.007812 C 44.460938 243.371094 34.410156 232.960938 24.84375 222.582031 C 62.136719 283.644531 124.378906 325.042969 188.15625 353.863281 C 252.953125 322.6875 311.453125 284.800781 350.820312 222.984375 C 350.351562 222.871094 350.199219 223.300781 349.972656 223.546875 C 340.855469 233.558594 331.199219 243.441406 320.371094 251.507812 C 320.328125 251.742188 320.160156 251.832031 319.953125 251.863281 C 319.914062 251.894531 319.882812 251.925781 319.847656 251.949219 C 319.992188 251.746094 320.042969 251.492188 320.3125 251.410156 C 343.214844 217 370.636719 157.125 370.863281 115.660156 Z M 55.476562 252.0625 C 55.476562 252.0625 55.488281 252.023438 55.488281 252.015625 C 55.492188 252.023438 55.5 252.03125 55.507812 252.039062 Z M 152.546875 323.339844 C 87.292969 282.339844 41.28125 218.785156 18.429688 145.578125 C 30.296875 161.832031 45.105469 176.390625 62.886719 186.257812 C 63.527344 186.617188 63.675781 187.105469 63.710938 187.773438 C 64.269531 199.265625 66.828125 210.660156 70.578125 221.523438 C 86.546875 266.046875 132.738281 307.039062 170.40625 334.277344 C 164.386719 330.734375 158.351562 327.222656 152.546875 323.339844 Z M 170.445312 334.308594 C 170.738281 334.359375 170.984375 334.511719 171.214844 334.679688 C 170.945312 334.589844 170.675781 334.492188 170.445312 334.308594 Z M 194.539062 294.863281 C 109.695312 300.214844 49.789062 213.601562 81.667969 135.613281 C 109.957031 65.332031 200.898438 42.164062 259.5 90.214844 C 340.773438 155.425781 298.917969 288.550781 194.539062 294.863281 Z M 355.496094 152.265625 C 327.628906 230.71875 278.914062 292.746094 205.835938 333.386719 C 239.140625 309.121094 270.902344 280.589844 293.261719 245.617188 C 303.824219 228.074219 310.257812 207.921875 311.238281 187.445312 C 311.25 186.785156 311.480469 186.367188 312.050781 186.027344 C 314.796875 184.382812 317.542969 182.730469 320.257812 181.035156 C 335.082031 172.199219 347.496094 159.960938 357.722656 146.242188 C 356.878906 148.242188 356.222656 150.269531 355.496094 152.265625 Z M 355.496094 152.265625 " fill-opacity="1" fill-rule="nonzero"/></g><path fill="#0b2740" d="M 323.609375 103.816406 C 321.921875 102.234375 319.96875 100.988281 318.164062 99.558594 C 317.972656 99.40625 317.820312 99.109375 317.453125 99.234375 C 318.140625 109.6875 321.261719 105.691406 312.679688 112.195312 C 312.507812 112.324219 312.21875 112.386719 312.28125 112.742188 C 322.816406 115.570312 319.082031 112.433594 322.429688 123.011719 C 328.460938 113.601562 323.75 115.605469 335.078125 115.402344 C 333.53125 113.324219 331.734375 111.3125 329.890625 109.449219 C 329.503906 109.082031 329.351562 108.734375 329.53125 108.175781 C 330.355469 105.445312 330.875 102.828125 331.558594 99.984375 C 329.292969 101.269531 327.109375 102.582031 324.867188 103.890625 C 324.382812 104.175781 324.050781 104.230469 323.609375 103.816406 Z M 323.609375 103.816406 " fill-opacity="1" fill-rule="nonzero"/><path fill="#0b2740" d="M 40.128906 115.03125 C 50.652344 115.414062 46.847656 112.597656 52.125 121.503906 C 52.296875 121.800781 52.398438 122.195312 52.828125 122.339844 C 53.371094 119.753906 54.140625 117.296875 54.796875 114.816406 C 54.949219 114.246094 55.230469 113.941406 55.808594 113.816406 C 58 113.355469 60.179688 112.867188 62.355469 112.375 C 62.59375 112.324219 62.914062 112.445312 63.058594 112.113281 C 54.515625 105.003906 56.546875 109.964844 57.453125 98.589844 C 57.164062 98.585938 57.027344 98.753906 56.867188 98.878906 C 55.128906 100.285156 53.378906 101.679688 51.648438 103.097656 C 50.589844 103.96875 50.769531 103.789062 49.804688 103.234375 C 47.75 102.058594 45.691406 100.882812 43.511719 99.636719 C 45.601562 111.035156 48.179688 105.667969 40.128906 115.03125 Z M 40.128906 115.03125 " fill-opacity="1" fill-rule="nonzero"/><path fill="#0b2740" d="M 48.597656 133.714844 C 49.367188 133.007812 50.191406 132.339844 50.871094 131.425781 C 46.035156 131.324219 47.515625 132.269531 45.414062 127.847656 C 42.929688 132.96875 45.675781 131.027344 40.148438 131.800781 C 44.386719 135.550781 42.800781 133.585938 42.128906 138.578125 C 46.523438 135.652344 44.613281 135.855469 49.003906 138.320312 C 49.238281 137.855469 48.378906 135.675781 48.210938 135.039062 C 47.996094 134.441406 48.167969 134.109375 48.597656 133.714844 Z M 48.597656 133.714844 " fill-opacity="1" fill-rule="nonzero"/><path fill="#0b2740" d="M 333.082031 132.199219 C 332.496094 132.226562 332.238281 131.992188 332.066406 131.441406 C 331.792969 130.554688 331.4375 129.699219 331.28125 128.777344 C 331.246094 128.585938 331.242188 128.363281 330.917969 128.335938 C 328.582031 132.808594 330.164062 131.660156 325.289062 131.625 C 326.40625 133.566406 328.96875 134.007812 327.398438 136.582031 C 327.070312 137.136719 326.835938 137.796875 326.847656 138.613281 C 331.367188 136.089844 329.425781 136.308594 333.769531 139.039062 C 333.125 134.734375 331.808594 135.984375 335.554688 132.996094 C 335.71875 132.859375 336.035156 132.816406 335.949219 132.476562 C 335 132.269531 334.039062 132.160156 333.082031 132.199219 Z M 333.082031 132.199219 " fill-opacity="1" fill-rule="nonzero"/><path fill="#0b2740" d="M 151.960938 45.960938 C 152.789062 46.222656 152.804688 46.1875 152.574219 46.992188 C 152.40625 47.566406 152.042969 48.089844 152.054688 48.800781 C 156.1875 46.425781 154.007812 46.777344 157.957031 48.675781 C 157.613281 44.644531 157.554688 45.878906 161.40625 44.089844 C 161.28125 43.625 158.996094 43.347656 158.441406 43.167969 C 157.890625 43.070312 157.785156 42.785156 157.859375 42.300781 C 157.972656 41.566406 158.070312 40.828125 158.019531 39.839844 C 154.441406 43.042969 155.929688 42.449219 151.582031 40.828125 C 154.15625 45 152.042969 43.054688 150.496094 45.976562 C 151.027344 46.042969 151.472656 45.800781 151.960938 45.960938 Z M 151.960938 45.960938 " fill-opacity="1" fill-rule="nonzero"/><path fill="#0b2740" d="M 214.683594 44.769531 C 218 45.9375 218.394531 45.402344 217.96875 49.222656 C 218.597656 49.023438 218.964844 48.699219 219.292969 48.382812 C 220.925781 46.699219 222.285156 48.585938 224.050781 49.136719 C 222.59375 45.367188 222.683594 46.824219 225.335938 46.304688 C 222.660156 43.339844 222.171875 45.039062 224.035156 41.65625 C 221.375 41.984375 221.125 43.917969 218.753906 41.507812 C 218.398438 41.210938 218.125 40.800781 217.601562 40.632812 C 217.488281 41.425781 217.707031 42.121094 217.769531 42.828125 C 217.84375 43.601562 217.855469 43.617188 217.121094 43.769531 C 216.335938 44.03125 214.839844 43.957031 214.28125 44.472656 C 214.355469 44.679688 214.523438 44.71875 214.683594 44.769531 Z M 214.683594 44.769531 " fill-opacity="1" fill-rule="nonzero"/><path fill="#0b2740" d="M 350.8125 222.933594 C 350.804688 222.949219 350.8125 222.964844 350.820312 222.976562 C 350.820312 222.980469 350.816406 222.980469 350.816406 222.984375 C 350.828125 222.984375 350.832031 222.992188 350.835938 222.992188 C 350.832031 222.96875 350.820312 222.953125 350.8125 222.933594 Z M 350.8125 222.933594 " fill-opacity="1" fill-rule="nonzero"/><path fill="#0b2740" d="M 350.75 222.820312 C 350.769531 222.855469 350.789062 222.898438 350.8125 222.933594 C 350.820312 222.882812 350.882812 222.808594 350.75 222.820312 Z M 350.75 222.820312 " fill-opacity="1" fill-rule="nonzero"/><path fill="#0b2740" d="M 269.535156 251.53125 C 320.480469 192.574219 294.550781 97.777344 218.933594 75.765625 C 128.1875 48.519531 50.253906 141.734375 89.828125 226.789062 C 122.253906 297.191406 219.226562 310.359375 269.535156 251.53125 Z M 283.421875 207.691406 C 280.007812 219.851562 274.40625 231.382812 266.609375 241.332031 C 266.277344 241.757812 265.941406 241.917969 265.390625 241.855469 C 264.410156 241.75 263.414062 241.742188 262.367188 241.6875 C 266.15625 235.394531 269.328125 228.867188 271.566406 221.875 C 271.980469 220.621094 272.582031 219.625 273.570312 218.734375 C 277.9375 215.039062 280.792969 210.308594 283.980469 205.648438 C 283.757812 206.457031 283.589844 207.074219 283.421875 207.691406 Z M 258.160156 170.277344 C 258.972656 179.925781 258.539062 190.445312 253.542969 198.996094 C 255.609375 188.617188 254.96875 178.050781 253.265625 167.695312 C 253.203125 167.28125 253.289062 167.070312 253.613281 166.847656 C 258.945312 163.054688 265.441406 160.527344 272.085938 161.546875 C 267.527344 163.800781 262.707031 165.847656 258.667969 169.148438 C 258.265625 169.464844 258.101562 169.769531 258.160156 170.277344 Z M 266.039062 120.21875 C 267.078125 119.664062 267.078125 119.695312 267.800781 120.648438 C 277.769531 133.765625 284.261719 149.480469 286.289062 165.824219 C 283.449219 160.664062 280.519531 155.242188 275.941406 151.285156 C 275.507812 150.90625 275.238281 150.464844 275.152344 149.886719 C 273.585938 140.214844 269.632812 131.167969 265.347656 122.429688 C 264.503906 120.664062 264.253906 121.179688 266.039062 120.21875 Z M 270.699219 143.398438 C 271.175781 145.191406 271.574219 147.003906 271.867188 148.839844 C 271.949219 149.375 271.8125 149.699219 271.378906 149.957031 C 264.347656 154.089844 257.207031 158.027344 250.128906 162.082031 C 249.414062 162.378906 248.914062 163.085938 248.371094 162.164062 C 240.585938 153.980469 231.0625 147.589844 221.238281 142.097656 C 220.175781 141.535156 219.597656 140.765625 219.414062 139.554688 C 218.039062 128.964844 214.464844 118.828125 209.605469 109.359375 C 216.582031 104.925781 224.105469 101.023438 232.277344 99.433594 C 232.71875 99.335938 233 99.53125 233.316406 99.738281 C 242.53125 105.738281 251.410156 112.289062 259.46875 119.785156 C 265.503906 126.214844 268.140625 135.144531 270.699219 143.398438 Z M 167.289062 246.1875 C 167.328125 246.3125 167.3125 246.453125 167.320312 246.648438 C 163.828125 240.101562 162.492188 232.59375 160.949219 225.378906 C 160.820312 224.765625 160.976562 224.394531 161.53125 224.042969 C 169.421875 219.015625 177.308594 213.976562 185.265625 209.046875 C 185.800781 208.707031 186.140625 208.761719 186.597656 209.140625 C 187.511719 209.910156 188.53125 210.546875 189.644531 211.222656 C 177.078125 217.027344 164.113281 231.457031 167.289062 246.1875 Z M 106.53125 230.367188 C 106.640625 230.34375 106.699219 230.441406 106.78125 230.484375 C 106.65625 230.546875 106.582031 230.488281 106.53125 230.367188 Z M 106.003906 221.027344 C 104.152344 216.75 119.800781 206.769531 123.382812 204.984375 C 123.878906 204.824219 124.027344 204.261719 124.527344 204.734375 C 130.457031 210.398438 136.828125 215.550781 143.539062 220.269531 C 146.089844 222.058594 148.699219 223.753906 151.402344 225.300781 C 151.933594 225.605469 152.101562 226.007812 152.191406 226.53125 C 153.996094 237.132812 157.554688 247.082031 162.507812 256.683594 C 157.742188 257.960938 153.136719 259.054688 148.296875 259.601562 C 147.109375 259.769531 146.066406 259.554688 145.058594 258.910156 C 143.148438 257.683594 141.21875 256.492188 139.285156 255.296875 C 131.804688 250.730469 124.679688 245.574219 117.082031 241.207031 C 116.300781 240.726562 115.699219 239.910156 115.148438 239.113281 C 111.367188 233.5 108.28125 227.414062 106.003906 221.027344 Z M 164.265625 142.058594 C 162.652344 140.851562 161.203125 139.824219 159.699219 138.867188 C 159.300781 138.609375 158.707031 138.492188 158.550781 138.042969 C 160.761719 129.445312 163.789062 120.878906 167.199219 112.621094 C 167.488281 111.941406 167.902344 111.507812 168.636719 111.28125 C 177.425781 108.636719 187.089844 107.335938 195.96875 110.3125 C 190.164062 110.402344 184.242188 111.550781 179.296875 114.859375 C 170.707031 120.335938 164.09375 131.828125 164.265625 142.058594 Z M 170.59375 155.902344 C 174.566406 158.574219 178.523438 161.269531 182.503906 163.925781 C 182.980469 164.242188 183.101562 164.589844 183.101562 165.113281 C 183.089844 171.171875 183.097656 177.234375 183.097656 183.296875 C 183.101562 183.296875 183.113281 183.296875 183.117188 183.296875 C 183.117188 189.390625 183.113281 195.488281 183.128906 201.582031 C 183.128906 202.121094 182.976562 202.449219 182.484375 202.734375 C 172.625 208.765625 162.953125 215.125 153.285156 221.46875 C 152.683594 221.898438 152.191406 221.945312 151.515625 221.535156 C 142.464844 216.179688 133.953125 210.011719 125.898438 203.257812 C 125.332031 202.789062 125.039062 202.210938 124.871094 201.523438 C 121.984375 190.246094 121.183594 178.449219 122.839844 166.917969 C 123.085938 164.164062 130.730469 158.867188 133.054688 156.871094 C 139.238281 152.300781 145.535156 147.742188 152.5625 144.53125 C 153.101562 144.304688 153.515625 144.375 153.992188 144.703125 C 159.460938 148.519531 165.058594 152.175781 170.59375 155.902344 Z M 193.582031 250.375 C 202.242188 247.234375 207.835938 235.859375 208.460938 227.097656 C 209.640625 228.117188 210.691406 229.027344 211.746094 229.9375 C 212.03125 230.183594 211.945312 230.484375 211.898438 230.792969 C 210.816406 237.496094 208.296875 243.835938 205.535156 250.003906 C 205.175781 250.792969 204.675781 251.222656 203.8125 251.402344 C 195.902344 253.160156 187.34375 254.816406 179.542969 251.714844 C 184.417969 252.425781 189.070312 252.054688 193.582031 250.375 Z M 200.078125 211.042969 C 195.734375 208.320312 191.421875 205.539062 187.074219 202.824219 C 186.460938 202.441406 186.289062 202 186.289062 201.3125 C 186.308594 195.324219 186.296875 189.328125 186.296875 183.339844 C 186.261719 183.339844 186.222656 183.339844 186.1875 183.339844 C 186.1875 177.28125 186.203125 171.21875 186.167969 165.160156 C 186.160156 164.5 186.480469 164.25 186.9375 163.976562 C 196.535156 158.175781 206.09375 152.296875 215.664062 146.445312 C 216.574219 145.890625 217.476562 145.316406 218.367188 144.734375 C 218.902344 144.382812 219.363281 144.347656 219.976562 144.667969 C 228.902344 149.316406 236.957031 155.488281 244.207031 162.449219 C 245.171875 163.511719 246.769531 164.226562 246.9375 165.800781 C 248.753906 177.628906 247.863281 189.71875 245.449219 201.394531 C 245.324219 202.019531 245.046875 202.523438 244.523438 202.9375 C 236.148438 209.601562 227.4375 215.8125 218.140625 221.128906 C 217.449219 221.550781 216.925781 221.578125 216.191406 221.113281 C 210.839844 217.71875 205.441406 214.402344 200.078125 211.042969 Z M 262.332031 112.417969 C 262.265625 112.386719 262.273438 112.359375 262.292969 112.339844 C 262.289062 112.367188 262.304688 112.390625 262.332031 112.417969 Z M 262.355469 112.265625 Z M 232.769531 90.300781 C 242.746094 97.460938 252.476562 105.003906 262.351562 112.261719 C 261.894531 112.558594 261.558594 112.199219 261.230469 112.011719 C 252.722656 107.289062 244.554688 102.007812 236.679688 96.296875 C 234.429688 94.707031 233.523438 91.957031 231.796875 89.886719 C 232.234375 89.742188 232.488281 90.097656 232.769531 90.300781 Z M 231.804688 89.839844 L 231.789062 89.886719 C 231.785156 89.878906 231.773438 89.871094 231.769531 89.863281 Z M 146.640625 95.9375 C 148.664062 92.898438 150.695312 89.871094 152.820312 86.902344 C 153.558594 85.871094 154.472656 85.195312 155.652344 84.789062 C 175.964844 77.566406 198.664062 77.898438 219.023438 84.777344 C 220.332031 85.21875 221.402344 85.917969 222.285156 87.007812 C 224.789062 90.082031 227.132812 93.265625 229.28125 96.597656 C 229.710938 97.261719 229.714844 97.269531 228.925781 97.527344 C 223.199219 99.386719 217.679688 101.773438 212.242188 104.339844 C 210.894531 104.972656 209.511719 105.539062 208.1875 106.230469 C 207.542969 106.566406 206.929688 106.589844 206.207031 106.398438 C 198.425781 104.453125 190.367188 103.511719 182.351562 103.878906 C 176.140625 104.167969 170.015625 105.019531 164.082031 106.988281 C 163.402344 107.214844 162.839844 107.246094 162.191406 106.753906 C 160.382812 105.386719 158.371094 104.339844 156.40625 103.222656 C 153.207031 101.402344 149.972656 99.636719 146.636719 98.074219 C 146.25 97.890625 145.734375 97.910156 145.5 97.359375 C 146.039062 97.019531 146.304688 96.445312 146.640625 95.9375 Z M 144.851562 88.816406 C 144.84375 88.824219 144.839844 88.832031 144.835938 88.839844 L 144.800781 88.800781 Z M 113.410156 111.953125 C 123.714844 104.125 134.175781 95.90625 144.835938 88.839844 C 142.957031 91.453125 141.707031 94.707031 138.945312 96.53125 C 130.796875 102.675781 122.105469 107.957031 112.980469 112.511719 C 112.96875 112.144531 113.242188 112.082031 113.410156 111.953125 Z M 116.824219 118.324219 C 124.972656 111.320312 133.84375 105.234375 142.703125 99.171875 C 143.347656 98.738281 143.855469 98.695312 144.570312 99.0625 C 150.324219 101.988281 155.585938 105.683594 160.734375 109.550781 C 161.390625 110.03125 161.433594 110.09375 161.105469 110.921875 C 160.089844 113.511719 159.027344 116.082031 158.039062 118.6875 C 155.371094 125.65625 153.472656 132.886719 151.898438 140.167969 C 151.734375 140.953125 151.339844 141.46875 150.671875 141.835938 C 140.808594 147.167969 131.605469 153.605469 123.730469 161.632812 C 120.910156 164.726562 122.457031 163.894531 117.40625 160.863281 C 112.816406 157.8125 108.34375 154.609375 103.859375 151.410156 C 103.539062 151.179688 103.101562 151.007812 103.140625 150.472656 C 104.691406 140.945312 109.609375 124.871094 116.824219 118.324219 Z M 88.988281 165.34375 C 91.136719 148.820312 98 133.398438 107.777344 120.011719 C 108.074219 119.554688 108.367188 119.433594 108.867188 119.625 C 109.894531 120.015625 110.957031 120.304688 112.019531 120.878906 C 106.980469 130.085938 102.054688 139.535156 100.472656 150.023438 C 100.382812 150.703125 100.097656 151.21875 99.546875 151.65625 C 95.039062 155.410156 91.515625 160.058594 88.988281 165.34375 Z M 90.804688 179.078125 C 90.78125 179.160156 90.765625 179.207031 90.65625 179.1875 C 90.824219 175.078125 91.675781 164.808594 93.960938 161.742188 C 95.085938 160.4375 99.226562 154.226562 100.996094 155.566406 C 106.871094 159.347656 112.613281 163.332031 118.527344 167.050781 C 119.078125 167.402344 119.230469 167.769531 119.152344 168.390625 C 117.917969 177.984375 118.03125 187.742188 119.492188 197.296875 C 119.636719 198.367188 119.648438 198.363281 118.714844 198.917969 C 112.921875 202.25 107.753906 206.339844 102.785156 210.785156 C 104.464844 204.230469 108.097656 198.050781 113.640625 194.089844 C 114 193.847656 114.125 193.605469 114.101562 193.167969 C 113.710938 186.050781 113.492188 178.929688 113.394531 171.808594 C 113.382812 171.082031 113.203125 170.621094 112.539062 170.246094 C 107.839844 167.605469 104.238281 163.703125 100.796875 159.648438 C 100.359375 159.148438 100.335938 159.132812 99.855469 159.625 C 94.902344 164.960938 92.882812 172.265625 90.804688 179.078125 Z M 113.25 242.101562 C 111.691406 241.28125 109.1875 241.808594 108.226562 240.386719 C 100.988281 229.929688 94.808594 218.355469 91.707031 206.027344 C 94.734375 210.597656 97.691406 215.476562 101.820312 219.246094 C 102.390625 219.796875 102.792969 220.378906 102.976562 221.226562 C 103.679688 224.410156 105.675781 227.246094 106.507812 230.34375 C 104.769531 227.855469 103.421875 225.054688 101.964844 222.382812 C 101.160156 220.730469 99.476562 219.769531 97.957031 218.84375 C 97.847656 218.761719 97.742188 218.597656 97.613281 218.785156 C 97.605469 218.785156 97.605469 218.78125 97.601562 218.78125 C 97.597656 218.792969 97.597656 218.800781 97.589844 218.8125 C 97.597656 218.8125 97.613281 218.796875 97.617188 218.792969 C 97.660156 218.890625 97.707031 218.984375 97.832031 218.992188 C 100.410156 223.289062 103.148438 227.515625 106.507812 231.257812 C 108.144531 233.082031 109.425781 235.171875 110.699219 237.257812 C 111.710938 238.917969 112.457031 240.757812 113.96875 242.085938 C 113.675781 242.347656 113.433594 242.171875 113.25 242.101562 Z M 113.921875 247.539062 C 113.925781 247.410156 114.089844 247.441406 114.210938 247.457031 C 116.964844 247.804688 119.847656 247.902344 122.210938 249.53125 C 128.703125 253.679688 135.792969 257.46875 140.847656 263.390625 C 142.738281 266.007812 144.953125 268.417969 146.558594 271.214844 C 136.273438 262.414062 125.359375 254.65625 113.921875 247.539062 Z M 220.652344 273.472656 C 219.765625 274.539062 218.660156 275.234375 217.351562 275.664062 C 198.171875 281.804688 177.171875 281.558594 157.957031 275.679688 C 156.628906 275.273438 155.585938 274.570312 154.667969 273.507812 C 151.691406 269.78125 148.351562 265.945312 146.1875 261.804688 C 152.808594 261.507812 159.183594 259.890625 165.609375 258.476562 C 175.066406 258.402344 184.574219 259.695312 194.078125 258.96875 C 197.691406 258.792969 201.292969 258.5 204.902344 258.230469 C 205.878906 258.15625 206.816406 258.265625 207.757812 258.511719 C 214.5 260.332031 221.363281 261.484375 228.316406 262.144531 C 226.046875 266.191406 223.558594 269.972656 220.652344 273.472656 Z M 229.023438 260.511719 C 226.761719 260.460938 208.246094 257.929688 209.558594 255.363281 C 214.332031 245.929688 217.171875 235.75 219.0625 225.394531 C 219.175781 224.765625 219.46875 224.367188 220.050781 224.066406 C 224.265625 221.855469 228.160156 219.121094 232.019531 216.367188 C 237.21875 212.703125 242.082031 208.613281 246.90625 204.488281 C 247.21875 204.195312 247.460938 204.226562 247.8125 204.417969 C 254.917969 208.414062 261.886719 212.769531 267.753906 218.484375 C 270.519531 219.65625 262.746094 235.457031 261.464844 237.765625 C 260.492188 239.566406 259.199219 240.980469 257.390625 242.011719 C 253.292969 244.355469 249.4375 247.082031 245.523438 249.714844 C 240.394531 253.117188 235.382812 256.707031 230.277344 260.136719 C 229.855469 260.402344 229.453125 260.628906 229.023438 260.511719 Z M 231.875 269.742188 C 231.613281 269.910156 231.34375 270.21875 230.996094 270.027344 C 231.011719 270.035156 231.019531 270.042969 231.035156 270.050781 C 230.894531 270.203125 231.003906 269.972656 230.875 269.945312 C 230.875 269.945312 230.875 269.945312 230.875 269.941406 C 234.136719 265.277344 237.628906 260.800781 242.351562 257.523438 C 248.367188 253.769531 254.707031 247.253906 262.140625 247.511719 C 252.890625 255.714844 242.363281 263.007812 231.875 269.742188 Z M 231.875 269.742188 " fill-opacity="1" fill-rule="nonzero"/><path fill="#0b2740" d="M 230.875 269.945312 C 230.910156 269.976562 230.953125 270.003906 230.996094 270.027344 C 230.953125 270.003906 230.914062 269.972656 230.875 269.945312 Z M 230.875 269.945312 " fill-opacity="1" fill-rule="nonzero"/><path fill="#0b2740" d="M 201.058594 206.957031 C 197.242188 204.042969 193.238281 200.464844 191.964844 195.6875 C 190.671875 189.898438 190.210938 184.1875 189.089844 178.277344 C 188.914062 185.335938 189.054688 192.355469 188.96875 199.414062 C 188.964844 200.105469 189.199219 200.597656 189.738281 200.996094 C 191.484375 202.199219 193.050781 203.671875 194.828125 204.808594 C 197.296875 205.859375 199.511719 207.492188 202.226562 207.875 C 201.832031 207.523438 201.476562 207.257812 201.058594 206.957031 Z M 201.058594 206.957031 " fill-opacity="1" fill-rule="nonzero"/><path fill="#0b2740" d="M 218.363281 218.132812 C 224.703125 214.507812 230.738281 210.394531 236.851562 206.410156 C 236.570312 206.246094 236.355469 206.464844 236.125 206.5625 C 230.628906 209.109375 225.285156 212.023438 219.589844 214.117188 C 215.265625 215.5625 209.058594 212.546875 205.382812 210.246094 C 205.390625 210.246094 205.359375 210.289062 205.359375 210.289062 L 205.410156 210.269531 C 207.792969 213.824219 211.902344 216.210938 215.683594 218.207031 C 216.597656 218.636719 217.460938 218.6875 218.363281 218.132812 Z M 218.363281 218.132812 " fill-opacity="1" fill-rule="nonzero"/><path fill="#0b2740" d="M 208.726562 154.023438 C 213.378906 153.519531 219.0625 151.035156 223.464844 153.210938 C 227.910156 155.472656 232.324219 157.78125 236.738281 160.109375 C 237.101562 160.296875 237.453125 160.667969 237.945312 160.433594 C 237.945312 160.433594 237.945312 160.433594 237.945312 160.4375 C 237.953125 160.433594 237.957031 160.425781 237.96875 160.425781 L 237.945312 160.433594 C 232.796875 156.578125 227.445312 153.003906 222.25 149.222656 C 221.390625 148.542969 220.609375 148.464844 219.589844 148.824219 C 215.652344 150.191406 211.953125 152.066406 208.253906 153.945312 C 208.453125 154.054688 208.589844 154.050781 208.726562 154.023438 Z M 208.726562 154.023438 " fill-opacity="1" fill-rule="nonzero"/><path fill="#0b2740" d="M 236.847656 206.410156 C 236.847656 206.414062 236.863281 206.417969 236.871094 206.425781 L 236.847656 206.410156 C 236.851562 206.410156 236.851562 206.410156 236.847656 206.410156 C 236.855469 206.417969 236.867188 206.425781 236.878906 206.429688 C 236.867188 206.417969 236.855469 206.414062 236.847656 206.410156 Z M 236.847656 206.410156 " fill-opacity="1" fill-rule="nonzero"/><path fill="#0b2740" d="M 236.953125 206.226562 C 236.847656 206.183594 236.738281 206.347656 236.851562 206.410156 C 236.882812 206.347656 237.015625 206.339844 236.953125 206.226562 Z M 236.953125 206.226562 " fill-opacity="1" fill-rule="nonzero"/><path fill="#0b2740" d="M 237.882812 160.617188 C 237.984375 160.640625 237.929688 160.488281 237.945312 160.433594 C 237.875 160.480469 237.816406 160.527344 237.882812 160.617188 Z M 237.882812 160.617188 " fill-opacity="1" fill-rule="nonzero"/><path fill="#0b2740" d="M 155.222656 214.53125 C 151.046875 215.886719 147.46875 212.839844 143.738281 211.5 C 140.882812 210.242188 138.023438 209.039062 135.261719 207.578125 C 135.261719 207.578125 135.261719 207.578125 135.257812 207.578125 C 135.257812 207.582031 135.246094 207.601562 135.246094 207.601562 L 135.28125 207.59375 C 140.570312 211.601562 146.171875 215.320312 151.882812 218.734375 C 154.039062 220.257812 161.59375 213.367188 163.691406 211.9375 C 168.597656 207.601562 174.597656 204.90625 180.109375 201.464844 C 180.761719 201.089844 181 200.648438 181 199.90625 C 180.855469 193.6875 181.183594 187.398438 180.472656 181.238281 C 179.90625 185.566406 179.359375 189.683594 178.476562 193.933594 C 176.664062 202.808594 163.296875 211.472656 155.222656 214.53125 Z M 155.222656 214.53125 " fill-opacity="1" fill-rule="nonzero"/><path fill="#0b2740" d="M 150.496094 148.589844 C 146.417969 151.335938 142.214844 153.910156 138.273438 156.863281 C 138.132812 156.941406 137.996094 157.019531 137.855469 157.089844 C 137.886719 157.160156 137.917969 157.226562 137.953125 157.296875 C 138.113281 157.210938 138.328125 157.21875 138.40625 157.011719 C 151.707031 151.25 148.113281 149.441406 163.03125 153.441406 C 160.699219 151.902344 158.15625 150.828125 155.605469 149.730469 C 154.042969 149.257812 152.078125 147.511719 150.496094 148.589844 Z M 150.496094 148.589844 " fill-opacity="1" fill-rule="nonzero"/><path fill="#0b2740" d="M 245.554688 110.988281 C 244.910156 110.558594 244.296875 110.074219 243.34375 109.679688 C 253.003906 117.464844 261.09375 127.152344 263.316406 139.6875 C 264.320312 143.855469 262.871094 147.757812 261.003906 151.398438 C 262.339844 151.179688 269.8125 147.382812 268.925781 145.761719 C 266.59375 136.992188 263.15625 128.125 257.351562 121.058594 C 253.785156 117.273438 249.890625 113.875 245.554688 110.988281 Z M 245.554688 110.988281 " fill-opacity="1" fill-rule="nonzero"/><path fill="#0b2740" d="M 240.132812 150.363281 C 236.15625 147.296875 232.332031 144.035156 228.417969 140.886719 C 225.398438 138.457031 225.371094 138.492188 223.828125 134.996094 C 222.148438 131.226562 220.390625 127.515625 218.582031 123.539062 C 219.117188 126.921875 220.167969 129.785156 220.730469 133.105469 C 221.097656 134.855469 221.425781 136.609375 221.71875 138.375 C 221.917969 139.566406 222.417969 140.492188 223.527344 141.082031 C 229.222656 144.484375 234.933594 147.855469 240.71875 151.070312 C 240.570312 150.683594 240.339844 150.527344 240.132812 150.363281 Z M 240.132812 150.363281 " fill-opacity="1" fill-rule="nonzero"/><path fill="#0b2740" d="M 260.953125 151.519531 C 260.996094 151.542969 261.027344 151.472656 260.996094 151.410156 C 260.925781 151.433594 260.789062 151.433594 260.953125 151.519531 Z M 260.953125 151.519531 " fill-opacity="1" fill-rule="nonzero"/><path fill="#0b2740" d="M 260.996094 151.410156 C 261 151.410156 261 151.410156 261.003906 151.410156 C 261.003906 151.410156 261.003906 151.40625 261.011719 151.40625 C 261 151.398438 260.996094 151.398438 260.984375 151.394531 C 260.984375 151.398438 260.988281 151.40625 260.996094 151.410156 Z M 260.996094 151.410156 " fill-opacity="1" fill-rule="nonzero"/><path fill="#0b2740" d="M 106.800781 149.097656 C 108.789062 150.660156 110.953125 151.917969 113.292969 152.859375 C 113.488281 152.941406 113.691406 153.1875 113.941406 152.925781 C 111.550781 147.714844 111.339844 142.933594 112.964844 137.46875 C 115.6875 124.738281 125.03125 115.398438 134.570312 107.367188 C 119.460938 116.164062 112.496094 126.121094 107.304688 142.613281 C 106.878906 143.992188 106.460938 145.367188 106.070312 146.757812 C 105.679688 148.179688 105.640625 148.175781 106.800781 149.097656 Z M 106.800781 149.097656 " fill-opacity="1" fill-rule="nonzero"/><path fill="#0b2740" d="M 132.097656 148.597656 C 137.53125 145.667969 142.785156 142.558594 148.296875 139.78125 C 148.863281 139.492188 149.183594 139.0625 149.34375 138.460938 C 150.78125 132.792969 152.453125 127.125 154.027344 121.511719 C 143.140625 142.882812 149.800781 133.535156 132.097656 148.597656 Z M 132.097656 148.597656 " fill-opacity="1" fill-rule="nonzero"/><path fill="#0b2740" d="M 134.875 107.28125 C 134.875 107.28125 134.875 107.277344 134.875 107.277344 C 134.78125 107.296875 134.679688 107.320312 134.585938 107.339844 C 134.585938 107.339844 134.582031 107.339844 134.582031 107.339844 C 134.582031 107.351562 134.582031 107.355469 134.582031 107.367188 C 134.667969 107.320312 134.773438 107.3125 134.875 107.28125 Z M 134.875 107.28125 " fill-opacity="1" fill-rule="nonzero"/><path fill="#0b2740" d="M 220.6875 237.503906 C 221.863281 234.304688 223.1875 231.167969 224.398438 227.984375 C 224.734375 227.144531 225.261719 226.4375 225.9375 225.824219 C 229.753906 222.183594 233.75 218.738281 237.554688 215.078125 C 237.433594 215.101562 237.375 215.058594 237.402344 214.933594 C 232.242188 218.277344 227.191406 221.796875 222.078125 225.214844 C 221.570312 225.558594 221.363281 225.96875 221.265625 226.550781 C 220.347656 232.378906 219.078125 238.15625 218.230469 243.988281 C 219.292969 241.945312 219.765625 239.621094 220.6875 237.503906 Z M 220.6875 237.503906 " fill-opacity="1" fill-rule="nonzero"/><path fill="#0b2740" d="M 218.210938 244.003906 C 218.195312 244.003906 218.171875 244.003906 218.171875 244.003906 L 218.195312 244.023438 L 218.222656 244.007812 C 218.222656 244.003906 218.222656 243.992188 218.222656 243.988281 C 218.222656 243.992188 218.214844 243.996094 218.210938 244.003906 Z M 218.210938 244.003906 " fill-opacity="1" fill-rule="nonzero"/><path fill="#0b2740" d="M 238.160156 253.300781 C 227.226562 258.761719 231.25 257.988281 219.253906 257.292969 C 231.089844 260.738281 228.632812 260.359375 238.222656 253.515625 C 238.203125 253.445312 238.183594 253.375 238.160156 253.300781 Z M 238.160156 253.300781 " fill-opacity="1" fill-rule="nonzero"/><path fill="#0b2740" d="M 146.996094 228.121094 C 147.539062 228.636719 147.898438 229.238281 148.175781 229.917969 C 150.554688 235.621094 152.660156 241.226562 155.109375 246.945312 C 153.6875 240.621094 152.230469 234.378906 150.808594 228.058594 C 150.613281 227.195312 150.1875 226.609375 149.445312 226.117188 C 144.140625 222.65625 139.113281 218.796875 133.816406 215.316406 C 133.742188 215.347656 133.664062 215.371094 133.589844 215.40625 C 138.089844 219.605469 142.511719 223.890625 146.996094 228.121094 Z M 146.996094 228.121094 " fill-opacity="1" fill-rule="nonzero"/><path fill="#0b2740" d="M 144.414062 255.847656 C 142.414062 254.929688 140.414062 254.019531 138.40625 253.109375 C 138.398438 253.1875 138.398438 253.265625 138.394531 253.339844 C 140.921875 254.941406 143.449219 256.542969 145.964844 258.160156 C 146.636719 258.59375 147.308594 258.746094 148.113281 258.5625 C 150.757812 257.910156 153.265625 257.816406 155.875 256.808594 C 151.855469 256.894531 148.066406 257.722656 144.414062 255.847656 Z M 144.414062 255.847656 " fill-opacity="1" fill-rule="nonzero"/><path fill="#0b2740" d="M 223.957031 264.121094 C 223.949219 264.105469 223.9375 264.09375 223.921875 264.078125 C 203.933594 280.335938 169.457031 278.644531 149.542969 263.386719 C 151.378906 266.296875 153.886719 268.785156 156.125 271.402344 C 157.292969 272.664062 158.648438 273.480469 160.269531 273.980469 C 169.722656 276.859375 179.648438 278.050781 189.515625 277.980469 C 198.179688 277.949219 206.878906 276.722656 215.125 274.003906 C 216.652344 273.464844 217.953125 272.632812 219.023438 271.402344 C 220.835938 269.15625 222.695312 266.773438 224.035156 264.265625 C 224.058594 264.261719 224.082031 264.246094 224.121094 264.214844 C 224.0625 264.183594 224.011719 264.152344 223.957031 264.121094 Z M 223.957031 264.121094 " fill-opacity="1" fill-rule="nonzero"/><path fill="#0b2740" d="M 97.242188 149.300781 C 98.308594 148.332031 98.917969 147.167969 99.214844 145.777344 C 100.0625 140.921875 102.359375 136.453125 103.972656 131.9375 C 101.402344 135.355469 98.613281 138.796875 97.125 142.859375 C 95.871094 146.792969 94.28125 150.589844 92.8125 154.4375 C 92.734375 154.640625 92.5625 154.828125 92.785156 155.117188 C 94.140625 153.066406 95.417969 150.976562 97.242188 149.300781 Z M 97.242188 149.300781 " fill-opacity="1" fill-rule="nonzero"/><path fill="#0b2740" d="M 104.113281 131.917969 C 104.066406 131.917969 104.015625 131.921875 103.960938 131.917969 C 103.96875 131.921875 103.96875 131.933594 103.972656 131.9375 C 103.976562 131.933594 103.984375 131.921875 103.984375 131.917969 C 104.023438 131.917969 104.074219 131.917969 104.113281 131.917969 Z M 104.113281 131.917969 " fill-opacity="1" fill-rule="nonzero"/><path fill="#0b2740" d="M 273.402344 135.375 C 274.804688 139.027344 276 142.746094 276.917969 146.546875 C 277.167969 147.441406 277.441406 148.332031 278.085938 149.042969 C 279.8125 150.941406 281.175781 153.085938 282.417969 155.316406 C 282.53125 155.527344 282.617188 155.78125 282.972656 155.960938 C 281.808594 151.75 279.714844 148.066406 278.628906 143.84375 C 277.585938 140.316406 275.023438 137.566406 273.28125 134.394531 C 273.132812 134.738281 273.28125 135.054688 273.402344 135.375 Z M 273.402344 135.375 " fill-opacity="1" fill-rule="nonzero"/><path fill="#0b2740" d="M 273.285156 134.390625 L 273.273438 134.378906 C 273.257812 134.382812 273.242188 134.390625 273.226562 134.394531 C 273.242188 134.390625 273.257812 134.390625 273.285156 134.390625 C 273.28125 134.390625 273.28125 134.394531 273.285156 134.394531 C 273.28125 134.390625 273.28125 134.390625 273.285156 134.390625 Z M 273.285156 134.390625 " fill-opacity="1" fill-rule="nonzero"/><path fill="#0b2740" d="M 272.867188 223.128906 C 271.460938 226.191406 270.101562 229.347656 268.144531 232.097656 C 268.445312 232.300781 268.601562 232.054688 268.722656 231.871094 C 272.347656 227.59375 275.320312 223.054688 278.394531 218.320312 C 276.402344 219.976562 273.914062 220.777344 272.867188 223.128906 Z M 272.867188 223.128906 " fill-opacity="1" fill-rule="nonzero"/><path fill="#0b2740" d="M 268.140625 232.097656 C 268.144531 232.167969 268.15625 232.242188 268.152344 232.3125 C 268.167969 232.242188 268.167969 232.175781 268.140625 232.097656 C 268.144531 232.089844 268.144531 232.089844 268.144531 232.089844 C 268.144531 232.089844 268.144531 232.089844 268.140625 232.089844 C 268.144531 232.089844 268.140625 232.097656 268.140625 232.097656 Z M 268.140625 232.097656 " fill-opacity="1" fill-rule="nonzero"/><path fill="#0b2740" d="M 267.984375 232.625 C 267.984375 232.628906 267.984375 232.625 267.984375 232.625 C 267.988281 232.625 268.015625 232.640625 268.015625 232.640625 L 268.003906 232.609375 C 268.109375 232.527344 268.140625 232.425781 268.152344 232.3125 C 268.125 232.425781 268.050781 232.535156 267.984375 232.625 Z M 267.984375 232.625 " fill-opacity="1" fill-rule="nonzero"/><path fill="#0b2740" d="M 97.335938 218.457031 C 97.34375 218.492188 97.355469 218.535156 97.371094 218.570312 C 97.371094 218.523438 97.375 218.472656 97.375 218.425781 C 97.359375 218.4375 97.335938 218.453125 97.335938 218.457031 Z M 97.335938 218.457031 " fill-opacity="1" fill-rule="nonzero"/><path fill="#0b2740" d="M 97.367188 218.570312 C 97.367188 218.597656 97.367188 218.625 97.359375 218.652344 C 97.359375 218.652344 97.382812 218.625 97.382812 218.625 C 97.382812 218.609375 97.375 218.59375 97.367188 218.570312 Z M 97.367188 218.570312 " fill-opacity="1" fill-rule="nonzero"/><path fill="#0b2740" d="M 97.367188 218.65625 C 97.375 218.652344 97.386719 218.644531 97.398438 218.636719 C 97.390625 218.628906 97.390625 218.628906 97.386719 218.625 C 97.386719 218.625 97.367188 218.652344 97.367188 218.65625 Z M 97.367188 218.65625 " fill-opacity="1" fill-rule="nonzero"/><path fill="#0b2740" d="M 97.597656 218.582031 C 97.488281 218.507812 97.449219 218.585938 97.398438 218.636719 C 97.464844 218.683594 97.535156 218.734375 97.601562 218.785156 C 97.632812 218.71875 97.726562 218.667969 97.597656 218.582031 Z M 97.597656 218.582031 " fill-opacity="1" fill-rule="nonzero"/></svg>